%TF.GenerationSoftware,KiCad,Pcbnew,9.0.2*%
%TF.CreationDate,2025-08-03T00:22:43-03:00*%
%TF.ProjectId,hermes,6865726d-6573-42e6-9b69-6361645f7063,rev?*%
%TF.SameCoordinates,Original*%
%TF.FileFunction,Soldermask,Top*%
%TF.FilePolarity,Negative*%
%FSLAX46Y46*%
G04 Gerber Fmt 4.6, Leading zero omitted, Abs format (unit mm)*
G04 Created by KiCad (PCBNEW 9.0.2) date 2025-08-03 00:22:43*
%MOMM*%
%LPD*%
G01*
G04 APERTURE LIST*
G04 Aperture macros list*
%AMRoundRect*
0 Rectangle with rounded corners*
0 $1 Rounding radius*
0 $2 $3 $4 $5 $6 $7 $8 $9 X,Y pos of 4 corners*
0 Add a 4 corners polygon primitive as box body*
4,1,4,$2,$3,$4,$5,$6,$7,$8,$9,$2,$3,0*
0 Add four circle primitives for the rounded corners*
1,1,$1+$1,$2,$3*
1,1,$1+$1,$4,$5*
1,1,$1+$1,$6,$7*
1,1,$1+$1,$8,$9*
0 Add four rect primitives between the rounded corners*
20,1,$1+$1,$2,$3,$4,$5,0*
20,1,$1+$1,$4,$5,$6,$7,0*
20,1,$1+$1,$6,$7,$8,$9,0*
20,1,$1+$1,$8,$9,$2,$3,0*%
G04 Aperture macros list end*
%ADD10RoundRect,0.250000X-0.325000X-0.650000X0.325000X-0.650000X0.325000X0.650000X-0.325000X0.650000X0*%
%ADD11RoundRect,0.053000X-0.369000X-0.159000X0.369000X-0.159000X0.369000X0.159000X-0.369000X0.159000X0*%
%ADD12RoundRect,0.053000X-0.159000X-0.369000X0.159000X-0.369000X0.159000X0.369000X-0.159000X0.369000X0*%
%ADD13RoundRect,0.102000X-0.770000X-0.850000X0.770000X-0.850000X0.770000X0.850000X-0.770000X0.850000X0*%
%ADD14RoundRect,0.152400X-0.609600X1.063600X-0.609600X-1.063600X0.609600X-1.063600X0.609600X1.063600X0*%
%ADD15C,1.524000*%
%ADD16RoundRect,0.152400X0.609600X-1.063600X0.609600X1.063600X-0.609600X1.063600X-0.609600X-1.063600X0*%
%ADD17C,1.600000*%
%ADD18C,3.000000*%
%ADD19RoundRect,0.102000X-0.754000X-0.754000X0.754000X-0.754000X0.754000X0.754000X-0.754000X0.754000X0*%
%ADD20C,1.712000*%
G04 APERTURE END LIST*
D10*
%TO.C,C1*%
X142585000Y-47000000D03*
X145535000Y-47000000D03*
%TD*%
%TO.C,C3*%
X142685000Y-54400000D03*
X145635000Y-54400000D03*
%TD*%
D11*
%TO.C,U2*%
X134405000Y-53000000D03*
X134405000Y-53400000D03*
X134405000Y-53800000D03*
X134405000Y-54200000D03*
X134405000Y-54600000D03*
X134405000Y-55000000D03*
D12*
X134950000Y-55545000D03*
X135350000Y-55545000D03*
X135750000Y-55545000D03*
X136150000Y-55545000D03*
X136550000Y-55545000D03*
X136950000Y-55545000D03*
D11*
X137495000Y-55000000D03*
X137495000Y-54600000D03*
X137495000Y-54200000D03*
X137495000Y-53800000D03*
X137495000Y-53400000D03*
X137495000Y-53000000D03*
D12*
X136950000Y-52455000D03*
X136550000Y-52455000D03*
X136150000Y-52455000D03*
X135750000Y-52455000D03*
X135350000Y-52455000D03*
X134950000Y-52455000D03*
D13*
X135950000Y-54000000D03*
%TD*%
D14*
%TO.C,U1*%
X117398500Y-49855000D03*
D15*
X117398500Y-49020000D03*
D14*
X119938500Y-49855000D03*
D15*
X119938500Y-49020000D03*
D14*
X122478500Y-49855000D03*
D15*
X122478500Y-49020000D03*
D14*
X125018500Y-49855000D03*
D15*
X125018500Y-49020000D03*
D14*
X127558500Y-49855000D03*
D15*
X127558500Y-49020000D03*
D14*
X130098500Y-49855000D03*
D15*
X130098500Y-49020000D03*
D14*
X132638500Y-49855000D03*
D15*
X132638500Y-49020000D03*
X132638500Y-33780000D03*
D16*
X132638500Y-32945000D03*
D15*
X130098500Y-33780000D03*
D16*
X130098500Y-32945000D03*
D15*
X127558500Y-33780000D03*
D16*
X127558500Y-32945000D03*
D15*
X125018500Y-33780000D03*
D16*
X125018500Y-32945000D03*
D15*
X122478500Y-33780000D03*
D16*
X122478500Y-32945000D03*
D15*
X119938500Y-33780000D03*
D16*
X119938500Y-32945000D03*
D15*
X117398500Y-33780000D03*
D16*
X117398500Y-32945000D03*
%TD*%
D17*
%TO.C,R1*%
X140150000Y-35600000D03*
X147770000Y-35600000D03*
%TD*%
D18*
%TO.C,DS1*%
X120200000Y-59800000D03*
X120200000Y-89500000D03*
X151700000Y-59800000D03*
X151700000Y-89500000D03*
D19*
X132140000Y-59100000D03*
D20*
X134680000Y-59100000D03*
X137220000Y-59100000D03*
X139760000Y-59100000D03*
%TD*%
D17*
%TO.C,R2*%
X140140000Y-42200000D03*
X147760000Y-42200000D03*
%TD*%
D10*
%TO.C,C2*%
X142585000Y-51100000D03*
X145535000Y-51100000D03*
%TD*%
M02*
