%TF.GenerationSoftware,KiCad,Pcbnew,9.0.2*%
%TF.CreationDate,2025-08-03T00:22:43-03:00*%
%TF.ProjectId,hermes,6865726d-6573-42e6-9b69-6361645f7063,rev?*%
%TF.SameCoordinates,Original*%
%TF.FileFunction,Legend,Top*%
%TF.FilePolarity,Positive*%
%FSLAX46Y46*%
G04 Gerber Fmt 4.6, Leading zero omitted, Abs format (unit mm)*
G04 Created by KiCad (PCBNEW 9.0.2) date 2025-08-03 00:22:43*
%MOMM*%
%LPD*%
G01*
G04 APERTURE LIST*
%ADD10C,0.150000*%
%ADD11C,0.101600*%
%ADD12C,0.120000*%
%ADD13C,0.127000*%
%ADD14C,0.200000*%
%ADD15C,0.100000*%
%ADD16C,0.504000*%
%ADD17C,0.000000*%
G04 APERTURE END LIST*
D10*
X143893333Y-45509580D02*
X143845714Y-45557200D01*
X143845714Y-45557200D02*
X143702857Y-45604819D01*
X143702857Y-45604819D02*
X143607619Y-45604819D01*
X143607619Y-45604819D02*
X143464762Y-45557200D01*
X143464762Y-45557200D02*
X143369524Y-45461961D01*
X143369524Y-45461961D02*
X143321905Y-45366723D01*
X143321905Y-45366723D02*
X143274286Y-45176247D01*
X143274286Y-45176247D02*
X143274286Y-45033390D01*
X143274286Y-45033390D02*
X143321905Y-44842914D01*
X143321905Y-44842914D02*
X143369524Y-44747676D01*
X143369524Y-44747676D02*
X143464762Y-44652438D01*
X143464762Y-44652438D02*
X143607619Y-44604819D01*
X143607619Y-44604819D02*
X143702857Y-44604819D01*
X143702857Y-44604819D02*
X143845714Y-44652438D01*
X143845714Y-44652438D02*
X143893333Y-44700057D01*
X144845714Y-45604819D02*
X144274286Y-45604819D01*
X144560000Y-45604819D02*
X144560000Y-44604819D01*
X144560000Y-44604819D02*
X144464762Y-44747676D01*
X144464762Y-44747676D02*
X144369524Y-44842914D01*
X144369524Y-44842914D02*
X144274286Y-44890533D01*
X143993333Y-56659580D02*
X143945714Y-56707200D01*
X143945714Y-56707200D02*
X143802857Y-56754819D01*
X143802857Y-56754819D02*
X143707619Y-56754819D01*
X143707619Y-56754819D02*
X143564762Y-56707200D01*
X143564762Y-56707200D02*
X143469524Y-56611961D01*
X143469524Y-56611961D02*
X143421905Y-56516723D01*
X143421905Y-56516723D02*
X143374286Y-56326247D01*
X143374286Y-56326247D02*
X143374286Y-56183390D01*
X143374286Y-56183390D02*
X143421905Y-55992914D01*
X143421905Y-55992914D02*
X143469524Y-55897676D01*
X143469524Y-55897676D02*
X143564762Y-55802438D01*
X143564762Y-55802438D02*
X143707619Y-55754819D01*
X143707619Y-55754819D02*
X143802857Y-55754819D01*
X143802857Y-55754819D02*
X143945714Y-55802438D01*
X143945714Y-55802438D02*
X143993333Y-55850057D01*
X144326667Y-55754819D02*
X144945714Y-55754819D01*
X144945714Y-55754819D02*
X144612381Y-56135771D01*
X144612381Y-56135771D02*
X144755238Y-56135771D01*
X144755238Y-56135771D02*
X144850476Y-56183390D01*
X144850476Y-56183390D02*
X144898095Y-56231009D01*
X144898095Y-56231009D02*
X144945714Y-56326247D01*
X144945714Y-56326247D02*
X144945714Y-56564342D01*
X144945714Y-56564342D02*
X144898095Y-56659580D01*
X144898095Y-56659580D02*
X144850476Y-56707200D01*
X144850476Y-56707200D02*
X144755238Y-56754819D01*
X144755238Y-56754819D02*
X144469524Y-56754819D01*
X144469524Y-56754819D02*
X144374286Y-56707200D01*
X144374286Y-56707200D02*
X144326667Y-56659580D01*
X135863095Y-50569819D02*
X135863095Y-51379342D01*
X135863095Y-51379342D02*
X135910714Y-51474580D01*
X135910714Y-51474580D02*
X135958333Y-51522200D01*
X135958333Y-51522200D02*
X136053571Y-51569819D01*
X136053571Y-51569819D02*
X136244047Y-51569819D01*
X136244047Y-51569819D02*
X136339285Y-51522200D01*
X136339285Y-51522200D02*
X136386904Y-51474580D01*
X136386904Y-51474580D02*
X136434523Y-51379342D01*
X136434523Y-51379342D02*
X136434523Y-50569819D01*
X136863095Y-50665057D02*
X136910714Y-50617438D01*
X136910714Y-50617438D02*
X137005952Y-50569819D01*
X137005952Y-50569819D02*
X137244047Y-50569819D01*
X137244047Y-50569819D02*
X137339285Y-50617438D01*
X137339285Y-50617438D02*
X137386904Y-50665057D01*
X137386904Y-50665057D02*
X137434523Y-50760295D01*
X137434523Y-50760295D02*
X137434523Y-50855533D01*
X137434523Y-50855533D02*
X137386904Y-50998390D01*
X137386904Y-50998390D02*
X136815476Y-51569819D01*
X136815476Y-51569819D02*
X137434523Y-51569819D01*
D11*
X112671979Y-50383809D02*
X113186026Y-50383809D01*
X113186026Y-50383809D02*
X113246502Y-50353571D01*
X113246502Y-50353571D02*
X113276741Y-50323333D01*
X113276741Y-50323333D02*
X113306979Y-50262857D01*
X113306979Y-50262857D02*
X113306979Y-50141904D01*
X113306979Y-50141904D02*
X113276741Y-50081428D01*
X113276741Y-50081428D02*
X113246502Y-50051190D01*
X113246502Y-50051190D02*
X113186026Y-50020952D01*
X113186026Y-50020952D02*
X112671979Y-50020952D01*
X113306979Y-49385952D02*
X113306979Y-49748809D01*
X113306979Y-49567381D02*
X112671979Y-49567381D01*
X112671979Y-49567381D02*
X112762693Y-49627857D01*
X112762693Y-49627857D02*
X112823169Y-49688333D01*
X112823169Y-49688333D02*
X112853407Y-49748809D01*
D10*
X143793333Y-33684819D02*
X143460000Y-33208628D01*
X143221905Y-33684819D02*
X143221905Y-32684819D01*
X143221905Y-32684819D02*
X143602857Y-32684819D01*
X143602857Y-32684819D02*
X143698095Y-32732438D01*
X143698095Y-32732438D02*
X143745714Y-32780057D01*
X143745714Y-32780057D02*
X143793333Y-32875295D01*
X143793333Y-32875295D02*
X143793333Y-33018152D01*
X143793333Y-33018152D02*
X143745714Y-33113390D01*
X143745714Y-33113390D02*
X143698095Y-33161009D01*
X143698095Y-33161009D02*
X143602857Y-33208628D01*
X143602857Y-33208628D02*
X143221905Y-33208628D01*
X144745714Y-33684819D02*
X144174286Y-33684819D01*
X144460000Y-33684819D02*
X144460000Y-32684819D01*
X144460000Y-32684819D02*
X144364762Y-32827676D01*
X144364762Y-32827676D02*
X144269524Y-32922914D01*
X144269524Y-32922914D02*
X144174286Y-32970533D01*
X120160714Y-57219819D02*
X120160714Y-56219819D01*
X120160714Y-56219819D02*
X120398809Y-56219819D01*
X120398809Y-56219819D02*
X120541666Y-56267438D01*
X120541666Y-56267438D02*
X120636904Y-56362676D01*
X120636904Y-56362676D02*
X120684523Y-56457914D01*
X120684523Y-56457914D02*
X120732142Y-56648390D01*
X120732142Y-56648390D02*
X120732142Y-56791247D01*
X120732142Y-56791247D02*
X120684523Y-56981723D01*
X120684523Y-56981723D02*
X120636904Y-57076961D01*
X120636904Y-57076961D02*
X120541666Y-57172200D01*
X120541666Y-57172200D02*
X120398809Y-57219819D01*
X120398809Y-57219819D02*
X120160714Y-57219819D01*
X121113095Y-57172200D02*
X121255952Y-57219819D01*
X121255952Y-57219819D02*
X121494047Y-57219819D01*
X121494047Y-57219819D02*
X121589285Y-57172200D01*
X121589285Y-57172200D02*
X121636904Y-57124580D01*
X121636904Y-57124580D02*
X121684523Y-57029342D01*
X121684523Y-57029342D02*
X121684523Y-56934104D01*
X121684523Y-56934104D02*
X121636904Y-56838866D01*
X121636904Y-56838866D02*
X121589285Y-56791247D01*
X121589285Y-56791247D02*
X121494047Y-56743628D01*
X121494047Y-56743628D02*
X121303571Y-56696009D01*
X121303571Y-56696009D02*
X121208333Y-56648390D01*
X121208333Y-56648390D02*
X121160714Y-56600771D01*
X121160714Y-56600771D02*
X121113095Y-56505533D01*
X121113095Y-56505533D02*
X121113095Y-56410295D01*
X121113095Y-56410295D02*
X121160714Y-56315057D01*
X121160714Y-56315057D02*
X121208333Y-56267438D01*
X121208333Y-56267438D02*
X121303571Y-56219819D01*
X121303571Y-56219819D02*
X121541666Y-56219819D01*
X121541666Y-56219819D02*
X121684523Y-56267438D01*
X122636904Y-57219819D02*
X122065476Y-57219819D01*
X122351190Y-57219819D02*
X122351190Y-56219819D01*
X122351190Y-56219819D02*
X122255952Y-56362676D01*
X122255952Y-56362676D02*
X122160714Y-56457914D01*
X122160714Y-56457914D02*
X122065476Y-56505533D01*
X143783333Y-40284819D02*
X143450000Y-39808628D01*
X143211905Y-40284819D02*
X143211905Y-39284819D01*
X143211905Y-39284819D02*
X143592857Y-39284819D01*
X143592857Y-39284819D02*
X143688095Y-39332438D01*
X143688095Y-39332438D02*
X143735714Y-39380057D01*
X143735714Y-39380057D02*
X143783333Y-39475295D01*
X143783333Y-39475295D02*
X143783333Y-39618152D01*
X143783333Y-39618152D02*
X143735714Y-39713390D01*
X143735714Y-39713390D02*
X143688095Y-39761009D01*
X143688095Y-39761009D02*
X143592857Y-39808628D01*
X143592857Y-39808628D02*
X143211905Y-39808628D01*
X144164286Y-39380057D02*
X144211905Y-39332438D01*
X144211905Y-39332438D02*
X144307143Y-39284819D01*
X144307143Y-39284819D02*
X144545238Y-39284819D01*
X144545238Y-39284819D02*
X144640476Y-39332438D01*
X144640476Y-39332438D02*
X144688095Y-39380057D01*
X144688095Y-39380057D02*
X144735714Y-39475295D01*
X144735714Y-39475295D02*
X144735714Y-39570533D01*
X144735714Y-39570533D02*
X144688095Y-39713390D01*
X144688095Y-39713390D02*
X144116667Y-40284819D01*
X144116667Y-40284819D02*
X144735714Y-40284819D01*
X143893333Y-49609580D02*
X143845714Y-49657200D01*
X143845714Y-49657200D02*
X143702857Y-49704819D01*
X143702857Y-49704819D02*
X143607619Y-49704819D01*
X143607619Y-49704819D02*
X143464762Y-49657200D01*
X143464762Y-49657200D02*
X143369524Y-49561961D01*
X143369524Y-49561961D02*
X143321905Y-49466723D01*
X143321905Y-49466723D02*
X143274286Y-49276247D01*
X143274286Y-49276247D02*
X143274286Y-49133390D01*
X143274286Y-49133390D02*
X143321905Y-48942914D01*
X143321905Y-48942914D02*
X143369524Y-48847676D01*
X143369524Y-48847676D02*
X143464762Y-48752438D01*
X143464762Y-48752438D02*
X143607619Y-48704819D01*
X143607619Y-48704819D02*
X143702857Y-48704819D01*
X143702857Y-48704819D02*
X143845714Y-48752438D01*
X143845714Y-48752438D02*
X143893333Y-48800057D01*
X144274286Y-48800057D02*
X144321905Y-48752438D01*
X144321905Y-48752438D02*
X144417143Y-48704819D01*
X144417143Y-48704819D02*
X144655238Y-48704819D01*
X144655238Y-48704819D02*
X144750476Y-48752438D01*
X144750476Y-48752438D02*
X144798095Y-48800057D01*
X144798095Y-48800057D02*
X144845714Y-48895295D01*
X144845714Y-48895295D02*
X144845714Y-48990533D01*
X144845714Y-48990533D02*
X144798095Y-49133390D01*
X144798095Y-49133390D02*
X144226667Y-49704819D01*
X144226667Y-49704819D02*
X144845714Y-49704819D01*
D12*
%TO.C,C1*%
X143348748Y-46090000D02*
X144771252Y-46090000D01*
X143348748Y-47910000D02*
X144771252Y-47910000D01*
%TO.C,C3*%
X143448748Y-53490000D02*
X144871252Y-53490000D01*
X143448748Y-55310000D02*
X144871252Y-55310000D01*
D13*
%TO.C,U2*%
X134450000Y-52500000D02*
X134450000Y-52570000D01*
X134450000Y-52500000D02*
X134520000Y-52500000D01*
X134450000Y-55500000D02*
X134450000Y-55430000D01*
X134450000Y-55500000D02*
X134520000Y-55500000D01*
X137450000Y-52500000D02*
X137380000Y-52500000D01*
X137450000Y-52500000D02*
X137450000Y-52570000D01*
X137450000Y-55500000D02*
X137380000Y-55500000D01*
X137450000Y-55500000D02*
X137450000Y-55430000D01*
D14*
X133665000Y-53000000D02*
G75*
G02*
X133465000Y-53000000I-100000J0D01*
G01*
X133465000Y-53000000D02*
G75*
G02*
X133665000Y-53000000I100000J0D01*
G01*
D13*
%TO.C,U1*%
X113067500Y-45391272D02*
X113067500Y-37396000D01*
X113567500Y-36896000D02*
X114477500Y-36896000D01*
D15*
X114477500Y-34415000D02*
X114477500Y-48385000D01*
D13*
X114477500Y-34415000D02*
X114477500Y-48385000D01*
X114477500Y-45895000D02*
X113567228Y-45891272D01*
X133527500Y-32510000D02*
X116382500Y-32510000D01*
X133527500Y-50290000D02*
X116382500Y-50290000D01*
X135432500Y-48385000D02*
X135432500Y-34415000D01*
X113067500Y-37396000D02*
G75*
G02*
X113567500Y-36896000I500000J0D01*
G01*
X113567228Y-45891272D02*
G75*
G02*
X113067501Y-45391272I291J500018D01*
G01*
X114477500Y-34415000D02*
G75*
G02*
X116382500Y-32510000I1905000J0D01*
G01*
X116382500Y-50290000D02*
G75*
G02*
X114477500Y-48385000I1J1905001D01*
G01*
X133527500Y-32510000D02*
G75*
G02*
X135432500Y-34415000I0J-1905000D01*
G01*
X135432500Y-48385000D02*
G75*
G02*
X133527500Y-50290000I-1905001J1D01*
G01*
D16*
X114970500Y-50350000D02*
G75*
G02*
X114466500Y-50350000I-252000J0D01*
G01*
X114466500Y-50350000D02*
G75*
G02*
X114970500Y-50350000I252000J0D01*
G01*
X115850500Y-49207000D02*
G75*
G02*
X115346500Y-49207000I-252000J0D01*
G01*
X115346500Y-49207000D02*
G75*
G02*
X115850500Y-49207000I252000J0D01*
G01*
D12*
%TO.C,R1*%
X140690000Y-34230000D02*
X147230000Y-34230000D01*
X140690000Y-34560000D02*
X140690000Y-34230000D01*
X140690000Y-36640000D02*
X140690000Y-36970000D01*
X140690000Y-36970000D02*
X147230000Y-36970000D01*
X147230000Y-34230000D02*
X147230000Y-34560000D01*
X147230000Y-36970000D02*
X147230000Y-36640000D01*
D13*
%TO.C,DS1*%
X118200000Y-57800000D02*
X153700000Y-57800000D01*
X118200000Y-91500000D02*
X118200000Y-57800000D01*
X153700000Y-57800000D02*
X153700000Y-91500000D01*
X153700000Y-91500000D02*
X118200000Y-91500000D01*
D14*
X132240000Y-57250000D02*
G75*
G02*
X132040000Y-57250000I-100000J0D01*
G01*
X132040000Y-57250000D02*
G75*
G02*
X132240000Y-57250000I100000J0D01*
G01*
D12*
%TO.C,R2*%
X140680000Y-40830000D02*
X147220000Y-40830000D01*
X140680000Y-41160000D02*
X140680000Y-40830000D01*
X140680000Y-43240000D02*
X140680000Y-43570000D01*
X140680000Y-43570000D02*
X147220000Y-43570000D01*
X147220000Y-40830000D02*
X147220000Y-41160000D01*
X147220000Y-43570000D02*
X147220000Y-43240000D01*
%TO.C,C2*%
X143348748Y-50190000D02*
X144771252Y-50190000D01*
X143348748Y-52010000D02*
X144771252Y-52010000D01*
D17*
%TO.C,G\u002A\u002A\u002A*%
G36*
X154891240Y-45315876D02*
G01*
X154891240Y-45663504D01*
X153037226Y-45663504D01*
X151183211Y-45663504D01*
X151183211Y-45315876D01*
X151183211Y-44968249D01*
X153037226Y-44968249D01*
X154891240Y-44968249D01*
X154891240Y-45315876D01*
G37*
G36*
X153059451Y-51559838D02*
G01*
X153112205Y-51578688D01*
X153129030Y-51615303D01*
X153129927Y-51634827D01*
X153104547Y-51700410D01*
X153015040Y-51738618D01*
X152956113Y-51749295D01*
X152784794Y-51760144D01*
X152621685Y-51746417D01*
X152491481Y-51712982D01*
X152418879Y-51664710D01*
X152411496Y-51641915D01*
X152432173Y-51604957D01*
X152504622Y-51580785D01*
X152644471Y-51565820D01*
X152770711Y-51559638D01*
X152951906Y-51554804D01*
X153059451Y-51559838D01*
G37*
G36*
X151878467Y-46868614D02*
G01*
X151878467Y-47424818D01*
X152272445Y-47424818D01*
X152666423Y-47424818D01*
X152666423Y-46961314D01*
X152666423Y-46497811D01*
X153037226Y-46497811D01*
X153408029Y-46497811D01*
X153408029Y-46961314D01*
X153408029Y-47424818D01*
X154149635Y-47424818D01*
X154891240Y-47424818D01*
X154891240Y-47795621D01*
X154891240Y-48166424D01*
X153037226Y-48166424D01*
X151183211Y-48166424D01*
X151183211Y-47239416D01*
X151183211Y-46312409D01*
X151530839Y-46312409D01*
X151878467Y-46312409D01*
X151878467Y-46868614D01*
G37*
G36*
X153089124Y-50254015D02*
G01*
X153185217Y-50285863D01*
X153221584Y-50338256D01*
X153222627Y-50352021D01*
X153186099Y-50404497D01*
X153161021Y-50417791D01*
X153089112Y-50426959D01*
X152949692Y-50431239D01*
X152767851Y-50430097D01*
X152686451Y-50427924D01*
X152484032Y-50418543D01*
X152357075Y-50404037D01*
X152288352Y-50380730D01*
X152260636Y-50344948D01*
X152258627Y-50336664D01*
X152262722Y-50299541D01*
X152302719Y-50274838D01*
X152394655Y-50258972D01*
X152554567Y-50248357D01*
X152675259Y-50243531D01*
X152922680Y-50240606D01*
X153089124Y-50254015D01*
G37*
G36*
X152401680Y-51180871D02*
G01*
X152411604Y-51256118D01*
X152353299Y-51370379D01*
X152264209Y-51501688D01*
X152183436Y-51617633D01*
X152125731Y-51721052D01*
X152125229Y-51817827D01*
X152148673Y-51893246D01*
X152193969Y-52042127D01*
X152194023Y-52123721D01*
X152148152Y-52152033D01*
X152136022Y-52152555D01*
X152048339Y-52110686D01*
X151974977Y-52002993D01*
X151931036Y-51856352D01*
X151924817Y-51776677D01*
X151950067Y-51639041D01*
X152015338Y-51483449D01*
X152104911Y-51334912D01*
X152203065Y-51218437D01*
X152294082Y-51159034D01*
X152314933Y-51156022D01*
X152401680Y-51180871D01*
G37*
G36*
X153665581Y-49963784D02*
G01*
X153770933Y-50056890D01*
X153884028Y-50184503D01*
X153984990Y-50324075D01*
X154053943Y-50453054D01*
X154056388Y-50459331D01*
X154097912Y-50631022D01*
X154080148Y-50801253D01*
X154016353Y-50972111D01*
X153911148Y-51161016D01*
X153802182Y-51280036D01*
X153705995Y-51318249D01*
X153650415Y-51285524D01*
X153645924Y-51206923D01*
X153689451Y-51111803D01*
X153732677Y-51063145D01*
X153806435Y-50962395D01*
X153866692Y-50824368D01*
X153873310Y-50801792D01*
X153891732Y-50632131D01*
X153843597Y-50474596D01*
X153721028Y-50309615D01*
X153643919Y-50231931D01*
X153543962Y-50113093D01*
X153503530Y-50012193D01*
X153525626Y-49945515D01*
X153587847Y-49927738D01*
X153665581Y-49963784D01*
G37*
G36*
X152188176Y-49785154D02*
G01*
X152259415Y-49853320D01*
X152272117Y-49880356D01*
X152272823Y-49977800D01*
X152239661Y-50108862D01*
X152228138Y-50138572D01*
X152172486Y-50294417D01*
X152169147Y-50405454D01*
X152225065Y-50507716D01*
X152318795Y-50609088D01*
X152429465Y-50728409D01*
X152474730Y-50805679D01*
X152461480Y-50856869D01*
X152434766Y-50877861D01*
X152358556Y-50876865D01*
X152250826Y-50822671D01*
X152139117Y-50733537D01*
X152050967Y-50627717D01*
X152046647Y-50620592D01*
X152003202Y-50512567D01*
X151983438Y-50362945D01*
X151984166Y-50147225D01*
X151984366Y-50142119D01*
X151994664Y-49970392D01*
X152009185Y-49836912D01*
X152025057Y-49766863D01*
X152027551Y-49763203D01*
X152097544Y-49748723D01*
X152188176Y-49785154D01*
G37*
G36*
X154891240Y-37644891D02*
G01*
X154891240Y-38015694D01*
X153836770Y-38016731D01*
X152782299Y-38017768D01*
X153289408Y-38494723D01*
X153796518Y-38971678D01*
X153289408Y-39465489D01*
X152782299Y-39959300D01*
X153836770Y-39960854D01*
X154891240Y-39962409D01*
X154891240Y-40310037D01*
X154891240Y-40657665D01*
X152990875Y-40657665D01*
X152521591Y-40657537D01*
X152136658Y-40656891D01*
X151827728Y-40655331D01*
X151586453Y-40652463D01*
X151404483Y-40647892D01*
X151273471Y-40641223D01*
X151185066Y-40632061D01*
X151130921Y-40620010D01*
X151102687Y-40604677D01*
X151092014Y-40585667D01*
X151090511Y-40567777D01*
X151125983Y-40504178D01*
X151230483Y-40384973D01*
X151401131Y-40213063D01*
X151635052Y-39991350D01*
X151922319Y-39729077D01*
X152754127Y-38980265D01*
X151922319Y-38232443D01*
X151638097Y-37974331D01*
X151419625Y-37769683D01*
X151261314Y-37612766D01*
X151157574Y-37497849D01*
X151102815Y-37419198D01*
X151090511Y-37379355D01*
X151090511Y-37274088D01*
X152990875Y-37274088D01*
X154891240Y-37274088D01*
X154891240Y-37644891D01*
G37*
G36*
X153859945Y-33761978D02*
G01*
X154682664Y-33774635D01*
X154785311Y-34075913D01*
X154865592Y-34424893D01*
X154886144Y-34800660D01*
X154846414Y-35164685D01*
X154803342Y-35331593D01*
X154640571Y-35697076D01*
X154408749Y-36006770D01*
X154116891Y-36254881D01*
X153774013Y-36435609D01*
X153389130Y-36543158D01*
X152971259Y-36571729D01*
X152881745Y-36567264D01*
X152476263Y-36501678D01*
X152121215Y-36362441D01*
X151804968Y-36144756D01*
X151759626Y-36104554D01*
X151494966Y-35801619D01*
X151300862Y-35447472D01*
X151180907Y-35055005D01*
X151138695Y-34637113D01*
X151177819Y-34206690D01*
X151200624Y-34099088D01*
X151255488Y-33867336D01*
X151509039Y-33879180D01*
X151726368Y-33893197D01*
X151864552Y-33914193D01*
X151937127Y-33947217D01*
X151957631Y-33997317D01*
X151948882Y-34043252D01*
X151930668Y-34137204D01*
X151911486Y-34293179D01*
X151894970Y-34480614D01*
X151892355Y-34518456D01*
X151883417Y-34725761D01*
X151892199Y-34877124D01*
X151923329Y-35008371D01*
X151971700Y-35132936D01*
X152135345Y-35407632D01*
X152357715Y-35611421D01*
X152635272Y-35742077D01*
X152964477Y-35797371D01*
X153029760Y-35799154D01*
X153353167Y-35760465D01*
X153638047Y-35644983D01*
X153873407Y-35461139D01*
X154048253Y-35217362D01*
X154147406Y-34942034D01*
X154171028Y-34785325D01*
X154174029Y-34648221D01*
X154167928Y-34605994D01*
X154152857Y-34558226D01*
X154125238Y-34526279D01*
X154068743Y-34506972D01*
X153967042Y-34497122D01*
X153803806Y-34493547D01*
X153588405Y-34493066D01*
X153037226Y-34493066D01*
X153037226Y-34121194D01*
X153037226Y-33749321D01*
X153859945Y-33761978D01*
G37*
G36*
X154891240Y-41631180D02*
G01*
X154891240Y-42040509D01*
X154681400Y-42120647D01*
X154471559Y-42200786D01*
X154484411Y-42827081D01*
X154497262Y-43453376D01*
X154694251Y-43525135D01*
X154891240Y-43596895D01*
X154891240Y-44008332D01*
X154886932Y-44188366D01*
X154875396Y-44324734D01*
X154858714Y-44397646D01*
X154849559Y-44404319D01*
X154666775Y-44334564D01*
X154429499Y-44240939D01*
X154148016Y-44127758D01*
X153832609Y-43999336D01*
X153763775Y-43971044D01*
X153493563Y-43859984D01*
X153141161Y-43714018D01*
X152785687Y-43565751D01*
X152437426Y-43419495D01*
X152106661Y-43279565D01*
X151803676Y-43150274D01*
X151538756Y-43035936D01*
X151322184Y-42940865D01*
X151164244Y-42869373D01*
X151075221Y-42825774D01*
X151059173Y-42814463D01*
X151061473Y-42812906D01*
X152859600Y-42812906D01*
X152882418Y-42841673D01*
X152965849Y-42883392D01*
X152972860Y-42886188D01*
X153077749Y-42925527D01*
X153225068Y-42978486D01*
X153390620Y-43036670D01*
X153550211Y-43091685D01*
X153679644Y-43135136D01*
X153754723Y-43158629D01*
X153763775Y-43160584D01*
X153770980Y-43118017D01*
X153776307Y-43005438D01*
X153778769Y-42845531D01*
X153778832Y-42813789D01*
X153778832Y-42466994D01*
X153329532Y-42629633D01*
X153140587Y-42699231D01*
X152986564Y-42758231D01*
X152886823Y-42799082D01*
X152859600Y-42812906D01*
X151061473Y-42812906D01*
X151105020Y-42783429D01*
X151223066Y-42724981D01*
X151399192Y-42645514D01*
X151619283Y-42551427D01*
X151835477Y-42462682D01*
X152101003Y-42355457D01*
X152428876Y-42222758D01*
X152795604Y-42074113D01*
X153177693Y-41919045D01*
X153551651Y-41767082D01*
X153744069Y-41688798D01*
X154891240Y-41221852D01*
X154891240Y-41631180D01*
G37*
G36*
X153936741Y-53442668D02*
G01*
X154207848Y-53516314D01*
X154455003Y-53653756D01*
X154660721Y-53846857D01*
X154807516Y-54087478D01*
X154845959Y-54195700D01*
X154885298Y-54432190D01*
X154889973Y-54718153D01*
X154861931Y-55017895D01*
X154803118Y-55295721D01*
X154782396Y-55361815D01*
X154727377Y-55517860D01*
X154682555Y-55635174D01*
X154657032Y-55690027D01*
X154656129Y-55690979D01*
X154604121Y-55693582D01*
X154483259Y-55685712D01*
X154316590Y-55669031D01*
X154260444Y-55662477D01*
X153884574Y-55617174D01*
X153989645Y-55426014D01*
X154073176Y-55232951D01*
X154138065Y-55006007D01*
X154176870Y-54780299D01*
X154182145Y-54590946D01*
X154176071Y-54546449D01*
X154104317Y-54357188D01*
X153982004Y-54221938D01*
X153867284Y-54168423D01*
X153725526Y-54179650D01*
X153585975Y-54278664D01*
X153453526Y-54460594D01*
X153346028Y-54687190D01*
X153175625Y-55045469D01*
X152981846Y-55316390D01*
X152760926Y-55503200D01*
X152509103Y-55609142D01*
X152243499Y-55637933D01*
X151916346Y-55594495D01*
X151641803Y-55478450D01*
X151424032Y-55296224D01*
X151267198Y-55054244D01*
X151175462Y-54758936D01*
X151152988Y-54416726D01*
X151203940Y-54034041D01*
X151204085Y-54033389D01*
X151248203Y-53851724D01*
X151285326Y-53746196D01*
X151322703Y-53701341D01*
X151360627Y-53699515D01*
X151447637Y-53716289D01*
X151590716Y-53737137D01*
X151709043Y-53751730D01*
X151859584Y-53771862D01*
X151936917Y-53795100D01*
X151960246Y-53831841D01*
X151951527Y-53882990D01*
X151875131Y-54198354D01*
X151846448Y-54444489D01*
X151866041Y-54631978D01*
X151934470Y-54771406D01*
X152002317Y-54838868D01*
X152159689Y-54921622D01*
X152309182Y-54914964D01*
X152451962Y-54818093D01*
X152589192Y-54630205D01*
X152722037Y-54350499D01*
X152726181Y-54340142D01*
X152869646Y-54051377D01*
X153049285Y-53800938D01*
X153248869Y-53608812D01*
X153392614Y-53519315D01*
X153659168Y-53440956D01*
X153936741Y-53442668D01*
G37*
G36*
X152807460Y-48727234D02*
G01*
X152944525Y-48786459D01*
X153055559Y-48859315D01*
X153211729Y-48984116D01*
X153403097Y-49150902D01*
X153619725Y-49349712D01*
X153851675Y-49570586D01*
X154089010Y-49803563D01*
X154321791Y-50038683D01*
X154540080Y-50265986D01*
X154733939Y-50475512D01*
X154893431Y-50657299D01*
X155008617Y-50801387D01*
X155069560Y-50897817D01*
X155076642Y-50923388D01*
X155061325Y-50974866D01*
X155011578Y-51053429D01*
X154921705Y-51165528D01*
X154786011Y-51317616D01*
X154598800Y-51516144D01*
X154354377Y-51767565D01*
X154138047Y-51986698D01*
X153820284Y-52304901D01*
X153556607Y-52562042D01*
X153337561Y-52764557D01*
X153153694Y-52918885D01*
X152995551Y-53031463D01*
X152853679Y-53108728D01*
X152718626Y-53157119D01*
X152580936Y-53183071D01*
X152431157Y-53193023D01*
X152365146Y-53193969D01*
X152363410Y-53193772D01*
X152012222Y-53153978D01*
X151702724Y-53033504D01*
X151442915Y-52836859D01*
X151239057Y-52568353D01*
X151135920Y-52347805D01*
X151082342Y-52165854D01*
X151049286Y-51978756D01*
X151047149Y-51944941D01*
X151352578Y-51944941D01*
X151401720Y-52222381D01*
X151523118Y-52469125D01*
X151706677Y-52672218D01*
X151942301Y-52818709D01*
X152219893Y-52895644D01*
X152363410Y-52904079D01*
X152495305Y-52896884D01*
X152618205Y-52873300D01*
X152741624Y-52826566D01*
X152875078Y-52749922D01*
X153028079Y-52636608D01*
X153210142Y-52479862D01*
X153430782Y-52272926D01*
X153699513Y-52009037D01*
X153886574Y-51821781D01*
X154759097Y-50944469D01*
X154482814Y-50633092D01*
X154355402Y-50494856D01*
X154178919Y-50310789D01*
X153971251Y-50099170D01*
X153750283Y-49878281D01*
X153596473Y-49727155D01*
X153320166Y-49464343D01*
X153092212Y-49264383D01*
X152900618Y-49119760D01*
X152733389Y-49022955D01*
X152578535Y-48966451D01*
X152424062Y-48942732D01*
X152341970Y-48940833D01*
X152056815Y-48986346D01*
X151804958Y-49106383D01*
X151597599Y-49287112D01*
X151445935Y-49514700D01*
X151361164Y-49775315D01*
X151354484Y-50055126D01*
X151369638Y-50141895D01*
X151428420Y-50342427D01*
X151516179Y-50509040D01*
X151653495Y-50677083D01*
X151722799Y-50748518D01*
X151816933Y-50852839D01*
X151849614Y-50925844D01*
X151832230Y-50993559D01*
X151831009Y-50995865D01*
X151775501Y-51068097D01*
X151740144Y-51086497D01*
X151673675Y-51125906D01*
X151589440Y-51228295D01*
X151502387Y-51369908D01*
X151427460Y-51526986D01*
X151385788Y-51649758D01*
X151352578Y-51944941D01*
X151047149Y-51944941D01*
X151044160Y-51897628D01*
X151072932Y-51671692D01*
X151148978Y-51420881D01*
X151256894Y-51188619D01*
X151339635Y-51064659D01*
X151450394Y-50926944D01*
X151336565Y-50777707D01*
X151207136Y-50561833D01*
X151106946Y-50307007D01*
X151050954Y-50055470D01*
X151044160Y-49952154D01*
X151077099Y-49702360D01*
X151165803Y-49433424D01*
X151295108Y-49185891D01*
X151368618Y-49084790D01*
X151594000Y-48880913D01*
X151870946Y-48739362D01*
X152179086Y-48663995D01*
X152498047Y-48658666D01*
X152807460Y-48727234D01*
G37*
%TD*%
M02*
