M48
; DRILL file {KiCad 9.0.2} date 2025-08-03T00:22:58-0300
; FORMAT={-:-/ absolute / metric / decimal}
; #@! TF.CreationDate,2025-08-03T00:22:58-03:00
; #@! TF.GenerationSoftware,Kicad,Pcbnew,9.0.2
; #@! TF.FileFunction,Plated,1,2,PTH
FMAT,2
METRIC
; #@! TA.AperFunction,Plated,PTH,ViaDrill
T1C0.300
; #@! TA.AperFunction,Plated,PTH,ComponentDrill
T2C0.800
; #@! TA.AperFunction,Plated,PTH,ComponentDrill
T3C0.889
; #@! TA.AperFunction,Plated,PTH,ComponentDrill
T4C1.000
%
G90
G05
T1
X123.35Y-55.5
X126.05Y-37.4
X126.056Y-52.421
X126.95Y-51.7
X127.65Y-42.2
X127.65Y-53.2
X131.75Y-53.3
X132.655Y-51.284
X134.25Y-56.425
X134.75Y-57.575
X135.55Y-51.3
X135.895Y-56.361
X137.05Y-57.0
X137.551Y-56.376
X138.361Y-54.511
X138.524Y-58.479
X138.85Y-55.8
X140.85Y-56.0
T2
X140.14Y-42.2
X140.15Y-35.6
X147.76Y-42.2
X147.77Y-35.6
T3
X117.398Y-33.78
X117.398Y-49.02
X119.938Y-33.78
X119.938Y-49.02
X122.478Y-33.78
X122.478Y-49.02
X125.018Y-33.78
X125.018Y-49.02
X127.558Y-33.78
X127.558Y-49.02
X130.099Y-33.78
X130.099Y-49.02
X132.638Y-33.78
X132.638Y-49.02
T4
X132.14Y-59.1
X134.68Y-59.1
X137.22Y-59.1
X139.76Y-59.1
M30
