%TF.GenerationSoftware,KiCad,Pcbnew,9.0.2*%
%TF.CreationDate,2025-08-03T00:22:43-03:00*%
%TF.ProjectId,hermes,6865726d-6573-42e6-9b69-6361645f7063,rev?*%
%TF.SameCoordinates,Original*%
%TF.FileFunction,Copper,L2,Bot*%
%TF.FilePolarity,Positive*%
%FSLAX46Y46*%
G04 Gerber Fmt 4.6, Leading zero omitted, Abs format (unit mm)*
G04 Created by KiCad (PCBNEW 9.0.2) date 2025-08-03 00:22:43*
%MOMM*%
%LPD*%
G01*
G04 APERTURE LIST*
%TA.AperFunction,ComponentPad*%
%ADD10C,1.524000*%
%TD*%
%TA.AperFunction,ComponentPad*%
%ADD11C,1.600000*%
%TD*%
%TA.AperFunction,ComponentPad*%
%ADD12R,1.508000X1.508000*%
%TD*%
%TA.AperFunction,ComponentPad*%
%ADD13C,1.508000*%
%TD*%
%TA.AperFunction,ViaPad*%
%ADD14C,0.600000*%
%TD*%
%TA.AperFunction,Conductor*%
%ADD15C,0.150000*%
%TD*%
G04 APERTURE END LIST*
D10*
%TO.P,U1,1,GPIO26/ADC0/A0*%
%TO.N,unconnected-(U1-GPIO26{slash}ADC0{slash}A0-Pad1)*%
X117398500Y-49020000D03*
%TO.P,U1,2,GPIO27/ADC1/A1*%
%TO.N,unconnected-(U1-GPIO27{slash}ADC1{slash}A1-Pad2)*%
X119938500Y-49020000D03*
%TO.P,U1,3,GPIO28/ADC2/A2*%
%TO.N,unconnected-(U1-GPIO28{slash}ADC2{slash}A2-Pad3)*%
X122478500Y-49020000D03*
%TO.P,U1,4,GPIO29/ADC3/A3*%
%TO.N,unconnected-(U1-GPIO29{slash}ADC3{slash}A3-Pad4)*%
X125018500Y-49020000D03*
%TO.P,U1,5,GPIO6/SDA*%
%TO.N,SDA*%
X127558500Y-49020000D03*
%TO.P,U1,6,GPIO7/SCL*%
%TO.N,SCL*%
X130098500Y-49020000D03*
%TO.P,U1,7,GPIO0/TX*%
%TO.N,INT*%
X132638500Y-49020000D03*
%TO.P,U1,8,GPIO1/RX*%
%TO.N,unconnected-(U1-GPIO1{slash}RX-Pad8)*%
X132638500Y-33780000D03*
%TO.P,U1,9,GPIO2/SCK*%
%TO.N,unconnected-(U1-GPIO2{slash}SCK-Pad9)*%
X130098500Y-33780000D03*
%TO.P,U1,10,GPIO4/MISO*%
%TO.N,unconnected-(U1-GPIO4{slash}MISO-Pad10)*%
X127558500Y-33780000D03*
%TO.P,U1,11,GPIO3/MOSI*%
%TO.N,unconnected-(U1-GPIO3{slash}MOSI-Pad11)*%
X125018500Y-33780000D03*
%TO.P,U1,12,3V3*%
%TO.N,VCC*%
X122478500Y-33780000D03*
%TO.P,U1,13,GND*%
%TO.N,GND*%
X119938500Y-33780000D03*
%TO.P,U1,14,VBUS*%
%TO.N,unconnected-(U1-VBUS-Pad14)*%
X117398500Y-33780000D03*
%TD*%
D11*
%TO.P,R1,1*%
%TO.N,SCL*%
X140150000Y-35600000D03*
%TO.P,R1,2*%
%TO.N,VCC*%
X147770000Y-35600000D03*
%TD*%
D12*
%TO.P,DS1,1,VDD*%
%TO.N,VCC*%
X132140000Y-59100000D03*
D13*
%TO.P,DS1,2,GND*%
%TO.N,GND*%
X134680000Y-59100000D03*
%TO.P,DS1,3,SCK*%
%TO.N,SCL*%
X137220000Y-59100000D03*
%TO.P,DS1,4,SDA*%
%TO.N,SDA*%
X139760000Y-59100000D03*
%TD*%
D11*
%TO.P,R2,1*%
%TO.N,SDA*%
X140140000Y-42200000D03*
%TO.P,R2,2*%
%TO.N,VCC*%
X147760000Y-42200000D03*
%TD*%
D14*
%TO.N,*%
X126950000Y-51700000D03*
%TO.N,VCC*%
X134750000Y-57575000D03*
X140850000Y-56000000D03*
X138850000Y-55800000D03*
X134250000Y-56425000D03*
X126050000Y-37400000D03*
X138360913Y-54510913D03*
X126056500Y-52421088D03*
X131750000Y-53300000D03*
%TO.N,GND*%
X123350000Y-55500000D03*
%TO.N,SDA*%
X127650000Y-42200000D03*
X127650000Y-53200000D03*
%TO.N,SCL*%
X135550000Y-51300000D03*
X138523514Y-58478634D03*
%TO.N,Net-(U2-REGOUT)*%
X137551000Y-56376301D03*
X135895372Y-56361368D03*
%TO.N,INT*%
X137050000Y-57000000D03*
X132654686Y-51284000D03*
%TD*%
D15*
%TO.N,VCC*%
X138850000Y-55800000D02*
X138850000Y-55000000D01*
X126050000Y-37400000D02*
X126150000Y-37500000D01*
X140186640Y-60130000D02*
X140850000Y-59466640D01*
X136190000Y-59015000D02*
X136190000Y-59526640D01*
X138850000Y-55000000D02*
X138360913Y-54510913D01*
X136190000Y-59526640D02*
X136793360Y-60130000D01*
X132893274Y-50708000D02*
X132416098Y-50708000D01*
X126150000Y-37500000D02*
X126150000Y-52327588D01*
X134750000Y-57575000D02*
X136190000Y-59015000D01*
X140850000Y-59466640D02*
X140850000Y-56000000D01*
X134250000Y-56425000D02*
X134250000Y-52064726D01*
X131750000Y-51374098D02*
X131750000Y-53300000D01*
X136793360Y-60130000D02*
X140186640Y-60130000D01*
X132416098Y-50708000D02*
X131750000Y-51374098D01*
X126150000Y-52327588D02*
X126056500Y-52421088D01*
X134250000Y-52064726D02*
X132893274Y-50708000D01*
%TO.N,SDA*%
X127650000Y-42200000D02*
X127650000Y-53200000D01*
%TO.N,SCL*%
X137564588Y-55400000D02*
X135550000Y-55400000D01*
X135550000Y-55400000D02*
X135550000Y-51300000D01*
X138126000Y-56438588D02*
X138126000Y-55961412D01*
X138126000Y-55961412D02*
X137564588Y-55400000D01*
X138523514Y-58478634D02*
X138523514Y-56836102D01*
X138523514Y-56836102D02*
X138126000Y-56438588D01*
%TO.N,Net-(U2-REGOUT)*%
X136157174Y-56361368D02*
X135895372Y-56361368D01*
X137474699Y-56300000D02*
X136218542Y-56300000D01*
X137551000Y-56376301D02*
X137474699Y-56300000D01*
X136218542Y-56300000D02*
X136157174Y-56361368D01*
%TO.N,INT*%
X132550000Y-51388686D02*
X132550000Y-57000000D01*
X132654686Y-51284000D02*
X132550000Y-51388686D01*
X132550000Y-57000000D02*
X137050000Y-57000000D01*
%TD*%
%TA.AperFunction,Conductor*%
%TO.N,GND*%
G36*
X156742539Y-31220185D02*
G01*
X156788294Y-31272989D01*
X156799500Y-31324500D01*
X156799500Y-91575500D01*
X156779815Y-91642539D01*
X156727011Y-91688294D01*
X156675500Y-91699500D01*
X115024500Y-91699500D01*
X114957461Y-91679815D01*
X114911706Y-91627011D01*
X114900500Y-91575500D01*
X114900500Y-89385258D01*
X118449500Y-89385258D01*
X118449500Y-89614741D01*
X118474446Y-89804215D01*
X118479452Y-89842238D01*
X118479453Y-89842240D01*
X118538842Y-90063887D01*
X118626650Y-90275876D01*
X118626657Y-90275890D01*
X118741392Y-90474617D01*
X118881081Y-90656661D01*
X118881089Y-90656670D01*
X119043330Y-90818911D01*
X119043338Y-90818918D01*
X119225382Y-90958607D01*
X119225385Y-90958608D01*
X119225388Y-90958611D01*
X119424112Y-91073344D01*
X119424117Y-91073346D01*
X119424123Y-91073349D01*
X119515480Y-91111190D01*
X119636113Y-91161158D01*
X119857762Y-91220548D01*
X120085266Y-91250500D01*
X120085273Y-91250500D01*
X120314727Y-91250500D01*
X120314734Y-91250500D01*
X120542238Y-91220548D01*
X120763887Y-91161158D01*
X120975888Y-91073344D01*
X121174612Y-90958611D01*
X121356661Y-90818919D01*
X121356665Y-90818914D01*
X121356670Y-90818911D01*
X121518911Y-90656670D01*
X121518914Y-90656665D01*
X121518919Y-90656661D01*
X121658611Y-90474612D01*
X121773344Y-90275888D01*
X121861158Y-90063887D01*
X121920548Y-89842238D01*
X121950500Y-89614734D01*
X121950500Y-89385266D01*
X121950499Y-89385258D01*
X149949500Y-89385258D01*
X149949500Y-89614741D01*
X149974446Y-89804215D01*
X149979452Y-89842238D01*
X149979453Y-89842240D01*
X150038842Y-90063887D01*
X150126650Y-90275876D01*
X150126657Y-90275890D01*
X150241392Y-90474617D01*
X150381081Y-90656661D01*
X150381089Y-90656670D01*
X150543330Y-90818911D01*
X150543338Y-90818918D01*
X150725382Y-90958607D01*
X150725385Y-90958608D01*
X150725388Y-90958611D01*
X150924112Y-91073344D01*
X150924117Y-91073346D01*
X150924123Y-91073349D01*
X151015480Y-91111190D01*
X151136113Y-91161158D01*
X151357762Y-91220548D01*
X151585266Y-91250500D01*
X151585273Y-91250500D01*
X151814727Y-91250500D01*
X151814734Y-91250500D01*
X152042238Y-91220548D01*
X152263887Y-91161158D01*
X152475888Y-91073344D01*
X152674612Y-90958611D01*
X152856661Y-90818919D01*
X152856665Y-90818914D01*
X152856670Y-90818911D01*
X153018911Y-90656670D01*
X153018914Y-90656665D01*
X153018919Y-90656661D01*
X153158611Y-90474612D01*
X153273344Y-90275888D01*
X153361158Y-90063887D01*
X153420548Y-89842238D01*
X153450500Y-89614734D01*
X153450500Y-89385266D01*
X153420548Y-89157762D01*
X153361158Y-88936113D01*
X153273344Y-88724112D01*
X153158611Y-88525388D01*
X153158608Y-88525385D01*
X153158607Y-88525382D01*
X153018918Y-88343338D01*
X153018911Y-88343330D01*
X152856670Y-88181089D01*
X152856661Y-88181081D01*
X152674617Y-88041392D01*
X152475890Y-87926657D01*
X152475876Y-87926650D01*
X152263887Y-87838842D01*
X152042238Y-87779452D01*
X152004215Y-87774446D01*
X151814741Y-87749500D01*
X151814734Y-87749500D01*
X151585266Y-87749500D01*
X151585258Y-87749500D01*
X151368715Y-87778009D01*
X151357762Y-87779452D01*
X151264076Y-87804554D01*
X151136112Y-87838842D01*
X150924123Y-87926650D01*
X150924109Y-87926657D01*
X150725382Y-88041392D01*
X150543338Y-88181081D01*
X150381081Y-88343338D01*
X150241392Y-88525382D01*
X150126657Y-88724109D01*
X150126650Y-88724123D01*
X150038842Y-88936112D01*
X149979453Y-89157759D01*
X149979451Y-89157770D01*
X149949500Y-89385258D01*
X121950499Y-89385258D01*
X121920548Y-89157762D01*
X121861158Y-88936113D01*
X121773344Y-88724112D01*
X121658611Y-88525388D01*
X121658608Y-88525385D01*
X121658607Y-88525382D01*
X121518918Y-88343338D01*
X121518911Y-88343330D01*
X121356670Y-88181089D01*
X121356661Y-88181081D01*
X121174617Y-88041392D01*
X120975890Y-87926657D01*
X120975876Y-87926650D01*
X120763887Y-87838842D01*
X120542238Y-87779452D01*
X120504215Y-87774446D01*
X120314741Y-87749500D01*
X120314734Y-87749500D01*
X120085266Y-87749500D01*
X120085258Y-87749500D01*
X119868715Y-87778009D01*
X119857762Y-87779452D01*
X119764076Y-87804554D01*
X119636112Y-87838842D01*
X119424123Y-87926650D01*
X119424109Y-87926657D01*
X119225382Y-88041392D01*
X119043338Y-88181081D01*
X118881081Y-88343338D01*
X118741392Y-88525382D01*
X118626657Y-88724109D01*
X118626650Y-88724123D01*
X118538842Y-88936112D01*
X118479453Y-89157759D01*
X118479451Y-89157770D01*
X118449500Y-89385258D01*
X114900500Y-89385258D01*
X114900500Y-59685258D01*
X118449500Y-59685258D01*
X118449500Y-59914741D01*
X118473408Y-60096328D01*
X118479452Y-60142238D01*
X118534610Y-60348091D01*
X118538842Y-60363887D01*
X118626650Y-60575876D01*
X118626657Y-60575890D01*
X118741392Y-60774617D01*
X118881081Y-60956661D01*
X118881089Y-60956670D01*
X119043330Y-61118911D01*
X119043338Y-61118918D01*
X119225382Y-61258607D01*
X119225385Y-61258608D01*
X119225388Y-61258611D01*
X119424112Y-61373344D01*
X119424117Y-61373346D01*
X119424123Y-61373349D01*
X119515480Y-61411190D01*
X119636113Y-61461158D01*
X119857762Y-61520548D01*
X120085266Y-61550500D01*
X120085273Y-61550500D01*
X120314727Y-61550500D01*
X120314734Y-61550500D01*
X120542238Y-61520548D01*
X120763887Y-61461158D01*
X120975888Y-61373344D01*
X121174612Y-61258611D01*
X121356661Y-61118919D01*
X121356665Y-61118914D01*
X121356670Y-61118911D01*
X121518911Y-60956670D01*
X121518914Y-60956665D01*
X121518919Y-60956661D01*
X121658611Y-60774612D01*
X121773344Y-60575888D01*
X121861158Y-60363887D01*
X121920548Y-60142238D01*
X121950500Y-59914734D01*
X121950500Y-59685266D01*
X121920548Y-59457762D01*
X121861158Y-59236113D01*
X121773344Y-59024112D01*
X121658611Y-58825388D01*
X121658608Y-58825385D01*
X121658607Y-58825382D01*
X121518918Y-58643338D01*
X121518911Y-58643330D01*
X121356670Y-58481089D01*
X121356665Y-58481085D01*
X121356661Y-58481081D01*
X121242106Y-58393179D01*
X121174617Y-58341392D01*
X121099693Y-58298135D01*
X130885500Y-58298135D01*
X130885500Y-59901870D01*
X130885501Y-59901876D01*
X130891908Y-59961483D01*
X130942202Y-60096328D01*
X130942206Y-60096335D01*
X131028452Y-60211544D01*
X131028455Y-60211547D01*
X131143664Y-60297793D01*
X131143671Y-60297797D01*
X131278517Y-60348091D01*
X131278516Y-60348091D01*
X131285444Y-60348835D01*
X131338127Y-60354500D01*
X132941872Y-60354499D01*
X133001483Y-60348091D01*
X133136331Y-60297796D01*
X133251546Y-60211546D01*
X133337796Y-60096331D01*
X133388091Y-59961483D01*
X133394500Y-59901873D01*
X133394499Y-58298128D01*
X133388091Y-58238517D01*
X133383667Y-58226656D01*
X133337797Y-58103671D01*
X133337793Y-58103664D01*
X133251547Y-57988455D01*
X133251544Y-57988452D01*
X133136335Y-57902206D01*
X133136328Y-57902202D01*
X133001482Y-57851908D01*
X133001483Y-57851908D01*
X132941883Y-57845501D01*
X132941881Y-57845500D01*
X132941873Y-57845500D01*
X132941864Y-57845500D01*
X131338129Y-57845500D01*
X131338123Y-57845501D01*
X131278516Y-57851908D01*
X131143671Y-57902202D01*
X131143664Y-57902206D01*
X131028455Y-57988452D01*
X131028452Y-57988455D01*
X130942206Y-58103664D01*
X130942202Y-58103671D01*
X130891908Y-58238517D01*
X130886976Y-58284397D01*
X130885501Y-58298123D01*
X130885500Y-58298135D01*
X121099693Y-58298135D01*
X121099681Y-58298128D01*
X120975888Y-58226656D01*
X120975876Y-58226650D01*
X120763887Y-58138842D01*
X120542238Y-58079452D01*
X120504215Y-58074446D01*
X120314741Y-58049500D01*
X120314734Y-58049500D01*
X120085266Y-58049500D01*
X120085258Y-58049500D01*
X119868715Y-58078009D01*
X119857762Y-58079452D01*
X119835982Y-58085288D01*
X119636112Y-58138842D01*
X119424123Y-58226650D01*
X119424109Y-58226657D01*
X119225382Y-58341392D01*
X119043338Y-58481081D01*
X118881081Y-58643338D01*
X118741392Y-58825382D01*
X118626657Y-59024109D01*
X118626650Y-59024123D01*
X118538842Y-59236112D01*
X118479453Y-59457759D01*
X118479451Y-59457770D01*
X118449500Y-59685258D01*
X114900500Y-59685258D01*
X114900500Y-48920639D01*
X116136000Y-48920639D01*
X116136000Y-49119360D01*
X116167087Y-49315637D01*
X116228493Y-49504629D01*
X116228494Y-49504632D01*
X116318713Y-49681694D01*
X116435519Y-49842464D01*
X116576036Y-49982981D01*
X116736806Y-50099787D01*
X116823649Y-50144035D01*
X116913867Y-50190005D01*
X116913870Y-50190006D01*
X116956334Y-50203803D01*
X117102864Y-50251413D01*
X117299139Y-50282500D01*
X117299140Y-50282500D01*
X117497860Y-50282500D01*
X117497861Y-50282500D01*
X117694136Y-50251413D01*
X117883132Y-50190005D01*
X118060194Y-50099787D01*
X118220964Y-49982981D01*
X118361481Y-49842464D01*
X118478287Y-49681694D01*
X118558015Y-49525218D01*
X118605990Y-49474423D01*
X118673811Y-49457628D01*
X118739946Y-49480165D01*
X118778984Y-49525218D01*
X118858713Y-49681694D01*
X118975519Y-49842464D01*
X119116036Y-49982981D01*
X119276806Y-50099787D01*
X119363649Y-50144035D01*
X119453867Y-50190005D01*
X119453870Y-50190006D01*
X119496334Y-50203803D01*
X119642864Y-50251413D01*
X119839139Y-50282500D01*
X119839140Y-50282500D01*
X120037860Y-50282500D01*
X120037861Y-50282500D01*
X120234136Y-50251413D01*
X120423132Y-50190005D01*
X120600194Y-50099787D01*
X120760964Y-49982981D01*
X120901481Y-49842464D01*
X121018287Y-49681694D01*
X121098015Y-49525218D01*
X121145990Y-49474423D01*
X121213811Y-49457628D01*
X121279946Y-49480165D01*
X121318984Y-49525218D01*
X121398713Y-49681694D01*
X121515519Y-49842464D01*
X121656036Y-49982981D01*
X121816806Y-50099787D01*
X121903649Y-50144035D01*
X121993867Y-50190005D01*
X121993870Y-50190006D01*
X122036334Y-50203803D01*
X122182864Y-50251413D01*
X122379139Y-50282500D01*
X122379140Y-50282500D01*
X122577860Y-50282500D01*
X122577861Y-50282500D01*
X122774136Y-50251413D01*
X122963132Y-50190005D01*
X123140194Y-50099787D01*
X123300964Y-49982981D01*
X123441481Y-49842464D01*
X123558287Y-49681694D01*
X123638015Y-49525218D01*
X123685990Y-49474423D01*
X123753811Y-49457628D01*
X123819946Y-49480165D01*
X123858984Y-49525218D01*
X123938713Y-49681694D01*
X124055519Y-49842464D01*
X124196036Y-49982981D01*
X124356806Y-50099787D01*
X124443649Y-50144035D01*
X124533867Y-50190005D01*
X124533870Y-50190006D01*
X124576334Y-50203803D01*
X124722864Y-50251413D01*
X124919139Y-50282500D01*
X124919140Y-50282500D01*
X125117860Y-50282500D01*
X125117861Y-50282500D01*
X125314136Y-50251413D01*
X125412182Y-50219555D01*
X125482023Y-50217561D01*
X125541856Y-50253641D01*
X125572684Y-50316342D01*
X125574500Y-50337487D01*
X125574500Y-51719647D01*
X125554815Y-51786686D01*
X125538181Y-51807328D01*
X125434713Y-51910795D01*
X125434710Y-51910799D01*
X125347109Y-52041902D01*
X125347102Y-52041915D01*
X125286764Y-52187586D01*
X125286761Y-52187598D01*
X125256000Y-52342241D01*
X125256000Y-52499934D01*
X125286761Y-52654577D01*
X125286764Y-52654589D01*
X125347102Y-52800260D01*
X125347109Y-52800273D01*
X125434710Y-52931376D01*
X125434713Y-52931380D01*
X125546207Y-53042874D01*
X125546211Y-53042877D01*
X125677314Y-53130478D01*
X125677327Y-53130485D01*
X125822998Y-53190823D01*
X125823003Y-53190825D01*
X125975471Y-53221153D01*
X125977653Y-53221587D01*
X125977656Y-53221588D01*
X125977658Y-53221588D01*
X126135344Y-53221588D01*
X126135345Y-53221587D01*
X126289997Y-53190825D01*
X126435679Y-53130482D01*
X126566789Y-53042877D01*
X126650089Y-52959576D01*
X126711410Y-52926093D01*
X126781102Y-52931077D01*
X126837036Y-52972948D01*
X126861453Y-53038412D01*
X126859387Y-53071448D01*
X126849500Y-53121157D01*
X126849500Y-53278846D01*
X126880261Y-53433489D01*
X126880264Y-53433501D01*
X126940602Y-53579172D01*
X126940609Y-53579185D01*
X127028210Y-53710288D01*
X127028213Y-53710292D01*
X127139707Y-53821786D01*
X127139711Y-53821789D01*
X127270814Y-53909390D01*
X127270827Y-53909397D01*
X127416498Y-53969735D01*
X127416503Y-53969737D01*
X127571153Y-54000499D01*
X127571156Y-54000500D01*
X127571158Y-54000500D01*
X127728844Y-54000500D01*
X127728845Y-54000499D01*
X127883497Y-53969737D01*
X128029179Y-53909394D01*
X128160289Y-53821789D01*
X128271789Y-53710289D01*
X128359394Y-53579179D01*
X128419737Y-53433497D01*
X128450500Y-53278842D01*
X128450500Y-53121158D01*
X128450500Y-53121157D01*
X128450500Y-53121155D01*
X128450499Y-53121153D01*
X128434928Y-53042874D01*
X128419737Y-52966503D01*
X128405189Y-52931380D01*
X128359397Y-52820827D01*
X128359390Y-52820814D01*
X128271789Y-52689711D01*
X128271786Y-52689707D01*
X128261819Y-52679740D01*
X128228334Y-52618417D01*
X128225500Y-52592059D01*
X128225500Y-50159112D01*
X128245185Y-50092073D01*
X128276614Y-50058794D01*
X128380964Y-49982981D01*
X128521481Y-49842464D01*
X128638287Y-49681694D01*
X128718015Y-49525218D01*
X128765990Y-49474423D01*
X128833811Y-49457628D01*
X128899946Y-49480165D01*
X128938984Y-49525218D01*
X129018713Y-49681694D01*
X129135519Y-49842464D01*
X129276036Y-49982981D01*
X129436806Y-50099787D01*
X129523649Y-50144035D01*
X129613867Y-50190005D01*
X129613870Y-50190006D01*
X129656334Y-50203803D01*
X129802864Y-50251413D01*
X129999139Y-50282500D01*
X129999140Y-50282500D01*
X130197860Y-50282500D01*
X130197861Y-50282500D01*
X130394136Y-50251413D01*
X130583132Y-50190005D01*
X130760194Y-50099787D01*
X130920964Y-49982981D01*
X131061481Y-49842464D01*
X131178287Y-49681694D01*
X131258015Y-49525218D01*
X131305990Y-49474423D01*
X131373811Y-49457628D01*
X131439946Y-49480165D01*
X131478984Y-49525218D01*
X131558713Y-49681694D01*
X131675519Y-49842464D01*
X131816036Y-49982981D01*
X131966189Y-50092073D01*
X131976806Y-50099787D01*
X131979497Y-50101158D01*
X131980337Y-50101951D01*
X131980958Y-50102332D01*
X131980878Y-50102462D01*
X132030296Y-50149129D01*
X132047096Y-50216949D01*
X132024562Y-50283085D01*
X132010890Y-50299327D01*
X131396635Y-50913583D01*
X131289487Y-51020730D01*
X131289485Y-51020733D01*
X131213719Y-51151961D01*
X131174500Y-51298332D01*
X131174500Y-52692059D01*
X131154815Y-52759098D01*
X131138181Y-52779740D01*
X131128213Y-52789707D01*
X131128210Y-52789711D01*
X131040609Y-52920814D01*
X131040602Y-52920827D01*
X130980264Y-53066498D01*
X130980261Y-53066510D01*
X130949500Y-53221153D01*
X130949500Y-53378846D01*
X130980261Y-53533489D01*
X130980264Y-53533501D01*
X131040602Y-53679172D01*
X131040609Y-53679185D01*
X131128210Y-53810288D01*
X131128213Y-53810292D01*
X131239707Y-53921786D01*
X131239711Y-53921789D01*
X131370814Y-54009390D01*
X131370827Y-54009397D01*
X131516498Y-54069735D01*
X131516503Y-54069737D01*
X131668157Y-54099903D01*
X131671153Y-54100499D01*
X131671156Y-54100500D01*
X131671158Y-54100500D01*
X131828844Y-54100500D01*
X131834907Y-54099903D01*
X131835093Y-54101793D01*
X131895883Y-54107224D01*
X131951067Y-54150079D01*
X131974321Y-54215965D01*
X131974500Y-54222621D01*
X131974500Y-56924234D01*
X131974500Y-57075766D01*
X131994109Y-57148950D01*
X132013719Y-57222136D01*
X132051602Y-57287750D01*
X132089485Y-57353365D01*
X132196635Y-57460515D01*
X132327865Y-57536281D01*
X132474234Y-57575500D01*
X133832152Y-57575500D01*
X133899191Y-57595185D01*
X133944946Y-57647989D01*
X133953769Y-57675308D01*
X133980261Y-57808491D01*
X133980264Y-57808501D01*
X134040602Y-57954172D01*
X134040609Y-57954185D01*
X134128210Y-58085288D01*
X134128213Y-58085292D01*
X134239707Y-58196786D01*
X134239711Y-58196789D01*
X134370814Y-58284390D01*
X134370827Y-58284397D01*
X134508420Y-58341389D01*
X134516503Y-58344737D01*
X134671153Y-58375499D01*
X134671156Y-58375500D01*
X134671158Y-58375500D01*
X134685258Y-58375500D01*
X134752297Y-58395185D01*
X134772939Y-58411819D01*
X135578181Y-59217061D01*
X135611666Y-59278384D01*
X135614500Y-59304742D01*
X135614500Y-59602405D01*
X135653719Y-59748776D01*
X135691602Y-59814390D01*
X135729485Y-59880005D01*
X136332845Y-60483365D01*
X136439995Y-60590515D01*
X136571225Y-60666281D01*
X136717594Y-60705500D01*
X136717596Y-60705500D01*
X140262404Y-60705500D01*
X140262406Y-60705500D01*
X140408775Y-60666281D01*
X140540005Y-60590515D01*
X141310515Y-59820005D01*
X141386281Y-59688775D01*
X141387223Y-59685258D01*
X149949500Y-59685258D01*
X149949500Y-59914741D01*
X149973408Y-60096328D01*
X149979452Y-60142238D01*
X150034610Y-60348091D01*
X150038842Y-60363887D01*
X150126650Y-60575876D01*
X150126657Y-60575890D01*
X150241392Y-60774617D01*
X150381081Y-60956661D01*
X150381089Y-60956670D01*
X150543330Y-61118911D01*
X150543338Y-61118918D01*
X150725382Y-61258607D01*
X150725385Y-61258608D01*
X150725388Y-61258611D01*
X150924112Y-61373344D01*
X150924117Y-61373346D01*
X150924123Y-61373349D01*
X151015480Y-61411190D01*
X151136113Y-61461158D01*
X151357762Y-61520548D01*
X151585266Y-61550500D01*
X151585273Y-61550500D01*
X151814727Y-61550500D01*
X151814734Y-61550500D01*
X152042238Y-61520548D01*
X152263887Y-61461158D01*
X152475888Y-61373344D01*
X152674612Y-61258611D01*
X152856661Y-61118919D01*
X152856665Y-61118914D01*
X152856670Y-61118911D01*
X153018911Y-60956670D01*
X153018914Y-60956665D01*
X153018919Y-60956661D01*
X153158611Y-60774612D01*
X153273344Y-60575888D01*
X153361158Y-60363887D01*
X153420548Y-60142238D01*
X153450500Y-59914734D01*
X153450500Y-59685266D01*
X153420548Y-59457762D01*
X153361158Y-59236113D01*
X153273344Y-59024112D01*
X153158611Y-58825388D01*
X153158608Y-58825385D01*
X153158607Y-58825382D01*
X153018918Y-58643338D01*
X153018911Y-58643330D01*
X152856670Y-58481089D01*
X152856661Y-58481081D01*
X152674617Y-58341392D01*
X152599681Y-58298128D01*
X152475888Y-58226656D01*
X152475876Y-58226650D01*
X152263887Y-58138842D01*
X152042238Y-58079452D01*
X152004215Y-58074446D01*
X151814741Y-58049500D01*
X151814734Y-58049500D01*
X151585266Y-58049500D01*
X151585258Y-58049500D01*
X151368715Y-58078009D01*
X151357762Y-58079452D01*
X151335982Y-58085288D01*
X151136112Y-58138842D01*
X150924123Y-58226650D01*
X150924109Y-58226657D01*
X150725382Y-58341392D01*
X150543338Y-58481081D01*
X150381081Y-58643338D01*
X150241392Y-58825382D01*
X150126657Y-59024109D01*
X150126650Y-59024123D01*
X150038842Y-59236112D01*
X149979453Y-59457759D01*
X149979451Y-59457770D01*
X149949500Y-59685258D01*
X141387223Y-59685258D01*
X141425500Y-59542406D01*
X141425500Y-59390873D01*
X141425500Y-56607940D01*
X141445185Y-56540901D01*
X141461822Y-56520256D01*
X141471787Y-56510291D01*
X141471789Y-56510289D01*
X141559394Y-56379179D01*
X141619737Y-56233497D01*
X141650500Y-56078842D01*
X141650500Y-55921158D01*
X141650500Y-55921155D01*
X141650499Y-55921153D01*
X141647234Y-55904740D01*
X141619737Y-55766503D01*
X141600955Y-55721158D01*
X141559397Y-55620827D01*
X141559390Y-55620814D01*
X141471789Y-55489711D01*
X141471786Y-55489707D01*
X141360292Y-55378213D01*
X141360288Y-55378210D01*
X141229185Y-55290609D01*
X141229172Y-55290602D01*
X141083501Y-55230264D01*
X141083489Y-55230261D01*
X140928845Y-55199500D01*
X140928842Y-55199500D01*
X140771158Y-55199500D01*
X140771155Y-55199500D01*
X140616510Y-55230261D01*
X140616498Y-55230264D01*
X140470827Y-55290602D01*
X140470814Y-55290609D01*
X140339711Y-55378210D01*
X140339707Y-55378213D01*
X140228213Y-55489707D01*
X140228210Y-55489711D01*
X140140609Y-55620814D01*
X140140602Y-55620827D01*
X140080264Y-55766498D01*
X140080261Y-55766510D01*
X140049500Y-55921153D01*
X140049500Y-56078846D01*
X140080261Y-56233489D01*
X140080264Y-56233501D01*
X140140602Y-56379172D01*
X140140609Y-56379185D01*
X140228210Y-56510288D01*
X140228212Y-56510291D01*
X140238178Y-56520256D01*
X140271665Y-56581578D01*
X140274500Y-56607940D01*
X140274500Y-57777440D01*
X140254815Y-57844479D01*
X140202011Y-57890234D01*
X140132853Y-57900178D01*
X140112182Y-57895371D01*
X140053764Y-57876390D01*
X139858736Y-57845500D01*
X139858731Y-57845500D01*
X139661269Y-57845500D01*
X139661264Y-57845500D01*
X139466235Y-57876390D01*
X139278438Y-57937408D01*
X139273940Y-57939272D01*
X139273442Y-57938070D01*
X139210624Y-57949859D01*
X139145887Y-57923575D01*
X139105637Y-57866463D01*
X139099014Y-57826480D01*
X139099014Y-56760338D01*
X139099014Y-56760336D01*
X139079640Y-56688030D01*
X139081303Y-56618181D01*
X139120466Y-56560319D01*
X139151957Y-56541380D01*
X139229179Y-56509394D01*
X139360289Y-56421789D01*
X139471789Y-56310289D01*
X139559394Y-56179179D01*
X139619737Y-56033497D01*
X139650500Y-55878842D01*
X139650500Y-55721158D01*
X139650500Y-55721155D01*
X139650499Y-55721153D01*
X139630543Y-55620827D01*
X139619737Y-55566503D01*
X139587929Y-55489711D01*
X139559397Y-55420827D01*
X139559390Y-55420814D01*
X139471789Y-55289711D01*
X139471786Y-55289707D01*
X139461819Y-55279740D01*
X139428334Y-55218417D01*
X139425500Y-55192059D01*
X139425500Y-54924236D01*
X139425500Y-54924234D01*
X139386281Y-54777865D01*
X139310515Y-54646635D01*
X139203365Y-54539485D01*
X139197732Y-54533852D01*
X139164247Y-54472529D01*
X139161413Y-54446171D01*
X139161413Y-54432068D01*
X139161412Y-54432066D01*
X139130651Y-54277423D01*
X139130650Y-54277416D01*
X139130648Y-54277411D01*
X139070310Y-54131740D01*
X139070303Y-54131727D01*
X138982702Y-54000624D01*
X138982699Y-54000620D01*
X138871205Y-53889126D01*
X138871201Y-53889123D01*
X138740098Y-53801522D01*
X138740085Y-53801515D01*
X138594414Y-53741177D01*
X138594402Y-53741174D01*
X138439758Y-53710413D01*
X138439755Y-53710413D01*
X138282071Y-53710413D01*
X138282068Y-53710413D01*
X138127423Y-53741174D01*
X138127411Y-53741177D01*
X137981740Y-53801515D01*
X137981727Y-53801522D01*
X137850624Y-53889123D01*
X137850620Y-53889126D01*
X137739126Y-54000620D01*
X137739123Y-54000624D01*
X137651522Y-54131727D01*
X137651515Y-54131740D01*
X137591177Y-54277411D01*
X137591174Y-54277423D01*
X137560413Y-54432066D01*
X137560413Y-54589759D01*
X137577629Y-54676309D01*
X137571402Y-54745900D01*
X137528539Y-54801078D01*
X137462649Y-54824322D01*
X137456012Y-54824500D01*
X136249500Y-54824500D01*
X136182461Y-54804815D01*
X136136706Y-54752011D01*
X136125500Y-54700500D01*
X136125500Y-51907940D01*
X136145185Y-51840901D01*
X136161822Y-51820256D01*
X136171787Y-51810291D01*
X136171789Y-51810289D01*
X136259394Y-51679179D01*
X136319737Y-51533497D01*
X136350500Y-51378842D01*
X136350500Y-51221158D01*
X136350500Y-51221155D01*
X136350499Y-51221153D01*
X136319738Y-51066510D01*
X136319737Y-51066503D01*
X136300779Y-51020733D01*
X136259397Y-50920827D01*
X136259390Y-50920814D01*
X136171789Y-50789711D01*
X136171786Y-50789707D01*
X136060292Y-50678213D01*
X136060288Y-50678210D01*
X135929185Y-50590609D01*
X135929172Y-50590602D01*
X135783501Y-50530264D01*
X135783489Y-50530261D01*
X135628845Y-50499500D01*
X135628842Y-50499500D01*
X135471158Y-50499500D01*
X135471155Y-50499500D01*
X135316510Y-50530261D01*
X135316498Y-50530264D01*
X135170827Y-50590602D01*
X135170814Y-50590609D01*
X135039711Y-50678210D01*
X135039707Y-50678213D01*
X134928213Y-50789707D01*
X134928210Y-50789711D01*
X134840609Y-50920814D01*
X134840602Y-50920827D01*
X134780264Y-51066498D01*
X134780261Y-51066510D01*
X134749500Y-51221153D01*
X134749500Y-51378846D01*
X134761997Y-51441673D01*
X134755770Y-51511265D01*
X134712907Y-51566442D01*
X134647017Y-51589686D01*
X134579020Y-51573618D01*
X134552699Y-51553545D01*
X133286291Y-50287137D01*
X133252806Y-50225814D01*
X133257790Y-50156122D01*
X133299662Y-50100189D01*
X133301087Y-50099138D01*
X133310811Y-50092073D01*
X133460964Y-49982981D01*
X133601481Y-49842464D01*
X133718287Y-49681694D01*
X133808505Y-49504632D01*
X133869913Y-49315636D01*
X133901000Y-49119361D01*
X133901000Y-48920639D01*
X133869913Y-48724364D01*
X133808505Y-48535368D01*
X133808505Y-48535367D01*
X133718286Y-48358305D01*
X133601481Y-48197536D01*
X133460964Y-48057019D01*
X133300194Y-47940213D01*
X133291203Y-47935632D01*
X133123132Y-47849994D01*
X133123129Y-47849993D01*
X132934137Y-47788587D01*
X132813948Y-47769551D01*
X132737861Y-47757500D01*
X132539139Y-47757500D01*
X132473714Y-47767862D01*
X132342862Y-47788587D01*
X132153870Y-47849993D01*
X132153867Y-47849994D01*
X131976805Y-47940213D01*
X131816033Y-48057021D01*
X131675521Y-48197533D01*
X131558713Y-48358305D01*
X131478985Y-48514780D01*
X131431010Y-48565576D01*
X131363189Y-48582371D01*
X131297054Y-48559833D01*
X131258015Y-48514780D01*
X131178286Y-48358305D01*
X131061481Y-48197536D01*
X130920964Y-48057019D01*
X130760194Y-47940213D01*
X130751203Y-47935632D01*
X130583132Y-47849994D01*
X130583129Y-47849993D01*
X130394137Y-47788587D01*
X130273948Y-47769551D01*
X130197861Y-47757500D01*
X129999139Y-47757500D01*
X129933714Y-47767862D01*
X129802862Y-47788587D01*
X129613870Y-47849993D01*
X129613867Y-47849994D01*
X129436805Y-47940213D01*
X129276033Y-48057021D01*
X129135521Y-48197533D01*
X129018713Y-48358305D01*
X128938985Y-48514780D01*
X128891010Y-48565576D01*
X128823189Y-48582371D01*
X128757054Y-48559833D01*
X128718015Y-48514780D01*
X128638286Y-48358305D01*
X128521481Y-48197536D01*
X128380964Y-48057019D01*
X128276615Y-47981205D01*
X128233949Y-47925875D01*
X128225500Y-47880887D01*
X128225500Y-42807940D01*
X128245185Y-42740901D01*
X128261822Y-42720256D01*
X128271787Y-42710291D01*
X128271789Y-42710289D01*
X128359394Y-42579179D01*
X128419737Y-42433497D01*
X128450500Y-42278842D01*
X128450500Y-42121158D01*
X128450500Y-42121155D01*
X128449667Y-42116968D01*
X128449667Y-42116967D01*
X128445824Y-42097648D01*
X138839500Y-42097648D01*
X138839500Y-42302351D01*
X138871522Y-42504534D01*
X138934781Y-42699223D01*
X139027715Y-42881613D01*
X139148028Y-43047213D01*
X139292786Y-43191971D01*
X139447749Y-43304556D01*
X139458390Y-43312287D01*
X139574607Y-43371503D01*
X139640776Y-43405218D01*
X139640778Y-43405218D01*
X139640781Y-43405220D01*
X139745137Y-43439127D01*
X139835465Y-43468477D01*
X139936557Y-43484488D01*
X140037648Y-43500500D01*
X140037649Y-43500500D01*
X140242351Y-43500500D01*
X140242352Y-43500500D01*
X140444534Y-43468477D01*
X140639219Y-43405220D01*
X140821610Y-43312287D01*
X140914590Y-43244732D01*
X140987213Y-43191971D01*
X140987215Y-43191968D01*
X140987219Y-43191966D01*
X141131966Y-43047219D01*
X141131968Y-43047215D01*
X141131971Y-43047213D01*
X141184732Y-42974590D01*
X141252287Y-42881610D01*
X141345220Y-42699219D01*
X141408477Y-42504534D01*
X141440500Y-42302352D01*
X141440500Y-42097648D01*
X146459500Y-42097648D01*
X146459500Y-42302351D01*
X146491522Y-42504534D01*
X146554781Y-42699223D01*
X146647715Y-42881613D01*
X146768028Y-43047213D01*
X146912786Y-43191971D01*
X147067749Y-43304556D01*
X147078390Y-43312287D01*
X147194607Y-43371503D01*
X147260776Y-43405218D01*
X147260778Y-43405218D01*
X147260781Y-43405220D01*
X147365137Y-43439127D01*
X147455465Y-43468477D01*
X147556557Y-43484488D01*
X147657648Y-43500500D01*
X147657649Y-43500500D01*
X147862351Y-43500500D01*
X147862352Y-43500500D01*
X148064534Y-43468477D01*
X148259219Y-43405220D01*
X148441610Y-43312287D01*
X148534590Y-43244732D01*
X148607213Y-43191971D01*
X148607215Y-43191968D01*
X148607219Y-43191966D01*
X148751966Y-43047219D01*
X148751968Y-43047215D01*
X148751971Y-43047213D01*
X148804732Y-42974590D01*
X148872287Y-42881610D01*
X148965220Y-42699219D01*
X149028477Y-42504534D01*
X149060500Y-42302352D01*
X149060500Y-42097648D01*
X149028477Y-41895465D01*
X148965218Y-41700776D01*
X148902767Y-41578211D01*
X148872287Y-41518390D01*
X148852098Y-41490602D01*
X148751971Y-41352786D01*
X148607213Y-41208028D01*
X148441613Y-41087715D01*
X148441612Y-41087714D01*
X148441610Y-41087713D01*
X148384653Y-41058691D01*
X148259223Y-40994781D01*
X148064534Y-40931522D01*
X147889995Y-40903878D01*
X147862352Y-40899500D01*
X147657648Y-40899500D01*
X147633329Y-40903351D01*
X147455465Y-40931522D01*
X147260776Y-40994781D01*
X147078386Y-41087715D01*
X146912786Y-41208028D01*
X146768028Y-41352786D01*
X146647715Y-41518386D01*
X146554781Y-41700776D01*
X146491522Y-41895465D01*
X146459500Y-42097648D01*
X141440500Y-42097648D01*
X141408477Y-41895465D01*
X141345218Y-41700776D01*
X141282767Y-41578211D01*
X141252287Y-41518390D01*
X141232098Y-41490602D01*
X141131971Y-41352786D01*
X140987213Y-41208028D01*
X140821613Y-41087715D01*
X140821612Y-41087714D01*
X140821610Y-41087713D01*
X140764653Y-41058691D01*
X140639223Y-40994781D01*
X140444534Y-40931522D01*
X140269995Y-40903878D01*
X140242352Y-40899500D01*
X140037648Y-40899500D01*
X140013329Y-40903351D01*
X139835465Y-40931522D01*
X139640776Y-40994781D01*
X139458386Y-41087715D01*
X139292786Y-41208028D01*
X139148028Y-41352786D01*
X139027715Y-41518386D01*
X138934781Y-41700776D01*
X138871522Y-41895465D01*
X138839500Y-42097648D01*
X128445824Y-42097648D01*
X128419738Y-41966510D01*
X128419737Y-41966503D01*
X128390313Y-41895466D01*
X128359397Y-41820827D01*
X128359390Y-41820814D01*
X128271789Y-41689711D01*
X128271786Y-41689707D01*
X128160292Y-41578213D01*
X128160288Y-41578210D01*
X128029185Y-41490609D01*
X128029172Y-41490602D01*
X127883501Y-41430264D01*
X127883489Y-41430261D01*
X127728845Y-41399500D01*
X127728842Y-41399500D01*
X127571158Y-41399500D01*
X127571155Y-41399500D01*
X127416510Y-41430261D01*
X127416498Y-41430264D01*
X127270827Y-41490602D01*
X127270814Y-41490609D01*
X127139711Y-41578210D01*
X127139707Y-41578213D01*
X127028213Y-41689707D01*
X127028210Y-41689711D01*
X126952602Y-41802866D01*
X126898989Y-41847671D01*
X126829664Y-41856378D01*
X126766637Y-41826223D01*
X126729918Y-41766780D01*
X126725500Y-41733975D01*
X126725500Y-37867519D01*
X126745185Y-37800480D01*
X126746398Y-37798628D01*
X126759394Y-37779179D01*
X126819737Y-37633497D01*
X126850500Y-37478842D01*
X126850500Y-37321158D01*
X126850500Y-37321155D01*
X126850499Y-37321153D01*
X126819738Y-37166510D01*
X126819737Y-37166503D01*
X126819735Y-37166498D01*
X126759397Y-37020827D01*
X126759390Y-37020814D01*
X126671789Y-36889711D01*
X126671786Y-36889707D01*
X126560292Y-36778213D01*
X126560288Y-36778210D01*
X126429185Y-36690609D01*
X126429172Y-36690602D01*
X126283501Y-36630264D01*
X126283489Y-36630261D01*
X126128845Y-36599500D01*
X126128842Y-36599500D01*
X125971158Y-36599500D01*
X125971155Y-36599500D01*
X125816510Y-36630261D01*
X125816498Y-36630264D01*
X125670827Y-36690602D01*
X125670814Y-36690609D01*
X125539711Y-36778210D01*
X125539707Y-36778213D01*
X125428213Y-36889707D01*
X125428210Y-36889711D01*
X125340609Y-37020814D01*
X125340602Y-37020827D01*
X125280264Y-37166498D01*
X125280261Y-37166510D01*
X125249500Y-37321153D01*
X125249500Y-37478846D01*
X125280261Y-37633489D01*
X125280264Y-37633501D01*
X125340602Y-37779172D01*
X125340609Y-37779185D01*
X125428210Y-37910288D01*
X125428213Y-37910292D01*
X125538181Y-38020260D01*
X125571666Y-38081583D01*
X125574500Y-38107941D01*
X125574500Y-47702512D01*
X125554815Y-47769551D01*
X125502011Y-47815306D01*
X125432853Y-47825250D01*
X125412183Y-47820443D01*
X125314138Y-47788587D01*
X125314139Y-47788587D01*
X125166929Y-47765271D01*
X125117861Y-47757500D01*
X124919139Y-47757500D01*
X124853714Y-47767862D01*
X124722862Y-47788587D01*
X124533870Y-47849993D01*
X124533867Y-47849994D01*
X124356805Y-47940213D01*
X124196033Y-48057021D01*
X124055521Y-48197533D01*
X123938713Y-48358305D01*
X123858985Y-48514780D01*
X123811010Y-48565576D01*
X123743189Y-48582371D01*
X123677054Y-48559833D01*
X123638015Y-48514780D01*
X123558286Y-48358305D01*
X123441481Y-48197536D01*
X123300964Y-48057019D01*
X123140194Y-47940213D01*
X123131203Y-47935632D01*
X122963132Y-47849994D01*
X122963129Y-47849993D01*
X122774137Y-47788587D01*
X122653948Y-47769551D01*
X122577861Y-47757500D01*
X122379139Y-47757500D01*
X122313714Y-47767862D01*
X122182862Y-47788587D01*
X121993870Y-47849993D01*
X121993867Y-47849994D01*
X121816805Y-47940213D01*
X121656033Y-48057021D01*
X121515521Y-48197533D01*
X121398713Y-48358305D01*
X121318985Y-48514780D01*
X121271010Y-48565576D01*
X121203189Y-48582371D01*
X121137054Y-48559833D01*
X121098015Y-48514780D01*
X121018286Y-48358305D01*
X120901481Y-48197536D01*
X120760964Y-48057019D01*
X120600194Y-47940213D01*
X120591203Y-47935632D01*
X120423132Y-47849994D01*
X120423129Y-47849993D01*
X120234137Y-47788587D01*
X120113948Y-47769551D01*
X120037861Y-47757500D01*
X119839139Y-47757500D01*
X119773714Y-47767862D01*
X119642862Y-47788587D01*
X119453870Y-47849993D01*
X119453867Y-47849994D01*
X119276805Y-47940213D01*
X119116033Y-48057021D01*
X118975521Y-48197533D01*
X118858713Y-48358305D01*
X118778985Y-48514780D01*
X118731010Y-48565576D01*
X118663189Y-48582371D01*
X118597054Y-48559833D01*
X118558015Y-48514780D01*
X118478286Y-48358305D01*
X118361481Y-48197536D01*
X118220964Y-48057019D01*
X118060194Y-47940213D01*
X118051203Y-47935632D01*
X117883132Y-47849994D01*
X117883129Y-47849993D01*
X117694137Y-47788587D01*
X117573948Y-47769551D01*
X117497861Y-47757500D01*
X117299139Y-47757500D01*
X117233714Y-47767862D01*
X117102862Y-47788587D01*
X116913870Y-47849993D01*
X116913867Y-47849994D01*
X116736805Y-47940213D01*
X116576033Y-48057021D01*
X116435521Y-48197533D01*
X116318713Y-48358305D01*
X116228494Y-48535367D01*
X116228493Y-48535370D01*
X116167087Y-48724362D01*
X116136000Y-48920639D01*
X114900500Y-48920639D01*
X114900500Y-35497648D01*
X138849500Y-35497648D01*
X138849500Y-35702351D01*
X138881522Y-35904534D01*
X138944781Y-36099223D01*
X139037715Y-36281613D01*
X139158028Y-36447213D01*
X139302786Y-36591971D01*
X139457749Y-36704556D01*
X139468390Y-36712287D01*
X139584607Y-36771503D01*
X139650776Y-36805218D01*
X139650778Y-36805218D01*
X139650781Y-36805220D01*
X139755137Y-36839127D01*
X139845465Y-36868477D01*
X139946557Y-36884488D01*
X140047648Y-36900500D01*
X140047649Y-36900500D01*
X140252351Y-36900500D01*
X140252352Y-36900500D01*
X140454534Y-36868477D01*
X140649219Y-36805220D01*
X140831610Y-36712287D01*
X140944506Y-36630264D01*
X140997213Y-36591971D01*
X140997215Y-36591968D01*
X140997219Y-36591966D01*
X141141966Y-36447219D01*
X141141968Y-36447215D01*
X141141971Y-36447213D01*
X141194732Y-36374590D01*
X141262287Y-36281610D01*
X141355220Y-36099219D01*
X141418477Y-35904534D01*
X141450500Y-35702352D01*
X141450500Y-35497648D01*
X146469500Y-35497648D01*
X146469500Y-35702351D01*
X146501522Y-35904534D01*
X146564781Y-36099223D01*
X146657715Y-36281613D01*
X146778028Y-36447213D01*
X146922786Y-36591971D01*
X147077749Y-36704556D01*
X147088390Y-36712287D01*
X147204607Y-36771503D01*
X147270776Y-36805218D01*
X147270778Y-36805218D01*
X147270781Y-36805220D01*
X147375137Y-36839127D01*
X147465465Y-36868477D01*
X147566557Y-36884488D01*
X147667648Y-36900500D01*
X147667649Y-36900500D01*
X147872351Y-36900500D01*
X147872352Y-36900500D01*
X148074534Y-36868477D01*
X148269219Y-36805220D01*
X148451610Y-36712287D01*
X148564506Y-36630264D01*
X148617213Y-36591971D01*
X148617215Y-36591968D01*
X148617219Y-36591966D01*
X148761966Y-36447219D01*
X148761968Y-36447215D01*
X148761971Y-36447213D01*
X148814732Y-36374590D01*
X148882287Y-36281610D01*
X148975220Y-36099219D01*
X149038477Y-35904534D01*
X149070500Y-35702352D01*
X149070500Y-35497648D01*
X149038477Y-35295466D01*
X148975220Y-35100781D01*
X148975218Y-35100778D01*
X148975218Y-35100776D01*
X148941503Y-35034607D01*
X148882287Y-34918390D01*
X148839401Y-34859362D01*
X148761971Y-34752786D01*
X148617213Y-34608028D01*
X148451613Y-34487715D01*
X148451612Y-34487714D01*
X148451610Y-34487713D01*
X148360759Y-34441422D01*
X148269223Y-34394781D01*
X148074534Y-34331522D01*
X147899995Y-34303878D01*
X147872352Y-34299500D01*
X147667648Y-34299500D01*
X147643329Y-34303351D01*
X147465465Y-34331522D01*
X147270776Y-34394781D01*
X147088386Y-34487715D01*
X146922786Y-34608028D01*
X146778028Y-34752786D01*
X146657715Y-34918386D01*
X146564781Y-35100776D01*
X146501522Y-35295465D01*
X146469500Y-35497648D01*
X141450500Y-35497648D01*
X141418477Y-35295466D01*
X141355220Y-35100781D01*
X141355218Y-35100778D01*
X141355218Y-35100776D01*
X141321503Y-35034607D01*
X141262287Y-34918390D01*
X141219401Y-34859362D01*
X141141971Y-34752786D01*
X140997213Y-34608028D01*
X140831613Y-34487715D01*
X140831612Y-34487714D01*
X140831610Y-34487713D01*
X140740759Y-34441422D01*
X140649223Y-34394781D01*
X140454534Y-34331522D01*
X140279995Y-34303878D01*
X140252352Y-34299500D01*
X140047648Y-34299500D01*
X140023329Y-34303351D01*
X139845465Y-34331522D01*
X139650776Y-34394781D01*
X139468386Y-34487715D01*
X139302786Y-34608028D01*
X139158028Y-34752786D01*
X139037715Y-34918386D01*
X138944781Y-35100776D01*
X138881522Y-35295465D01*
X138849500Y-35497648D01*
X114900500Y-35497648D01*
X114900500Y-33680639D01*
X116136000Y-33680639D01*
X116136000Y-33879360D01*
X116167087Y-34075637D01*
X116228493Y-34264629D01*
X116228494Y-34264632D01*
X116318574Y-34441422D01*
X116318713Y-34441694D01*
X116435519Y-34602464D01*
X116576036Y-34742981D01*
X116736806Y-34859787D01*
X116823649Y-34904035D01*
X116913867Y-34950005D01*
X116913870Y-34950006D01*
X117008366Y-34980709D01*
X117102864Y-35011413D01*
X117299139Y-35042500D01*
X117299140Y-35042500D01*
X117497860Y-35042500D01*
X117497861Y-35042500D01*
X117694136Y-35011413D01*
X117883132Y-34950005D01*
X118060194Y-34859787D01*
X118220964Y-34742981D01*
X118361481Y-34602464D01*
X118478287Y-34441694D01*
X118558296Y-34284667D01*
X118606269Y-34233872D01*
X118674090Y-34217077D01*
X118740225Y-34239614D01*
X118779265Y-34284668D01*
X118859141Y-34441432D01*
X118886230Y-34478715D01*
X118886231Y-34478716D01*
X119500852Y-33864094D01*
X119524292Y-33951571D01*
X119582811Y-34052930D01*
X119665570Y-34135689D01*
X119766929Y-34194208D01*
X119854405Y-34217647D01*
X119239783Y-34832268D01*
X119239783Y-34832269D01*
X119277067Y-34859358D01*
X119454062Y-34949542D01*
X119642977Y-35010924D01*
X119839179Y-35042000D01*
X120037821Y-35042000D01*
X120234020Y-35010924D01*
X120234023Y-35010924D01*
X120422937Y-34949542D01*
X120599925Y-34859362D01*
X120637216Y-34832268D01*
X120022595Y-34217647D01*
X120110071Y-34194208D01*
X120211430Y-34135689D01*
X120294189Y-34052930D01*
X120352708Y-33951571D01*
X120376147Y-33864094D01*
X120990768Y-34478715D01*
X121017864Y-34441422D01*
X121097734Y-34284669D01*
X121145708Y-34233872D01*
X121213529Y-34217077D01*
X121279664Y-34239614D01*
X121318703Y-34284667D01*
X121398713Y-34441694D01*
X121515519Y-34602464D01*
X121656036Y-34742981D01*
X121816806Y-34859787D01*
X121903649Y-34904035D01*
X121993867Y-34950005D01*
X121993870Y-34950006D01*
X122088366Y-34980709D01*
X122182864Y-35011413D01*
X122379139Y-35042500D01*
X122379140Y-35042500D01*
X122577860Y-35042500D01*
X122577861Y-35042500D01*
X122774136Y-35011413D01*
X122963132Y-34950005D01*
X123140194Y-34859787D01*
X123300964Y-34742981D01*
X123441481Y-34602464D01*
X123558287Y-34441694D01*
X123638015Y-34285218D01*
X123685990Y-34234423D01*
X123753811Y-34217628D01*
X123819946Y-34240165D01*
X123858984Y-34285218D01*
X123938713Y-34441694D01*
X124055519Y-34602464D01*
X124196036Y-34742981D01*
X124356806Y-34859787D01*
X124443649Y-34904035D01*
X124533867Y-34950005D01*
X124533870Y-34950006D01*
X124628366Y-34980709D01*
X124722864Y-35011413D01*
X124919139Y-35042500D01*
X124919140Y-35042500D01*
X125117860Y-35042500D01*
X125117861Y-35042500D01*
X125314136Y-35011413D01*
X125503132Y-34950005D01*
X125680194Y-34859787D01*
X125840964Y-34742981D01*
X125981481Y-34602464D01*
X126098287Y-34441694D01*
X126178015Y-34285218D01*
X126225990Y-34234423D01*
X126293811Y-34217628D01*
X126359946Y-34240165D01*
X126398984Y-34285218D01*
X126478713Y-34441694D01*
X126595519Y-34602464D01*
X126736036Y-34742981D01*
X126896806Y-34859787D01*
X126983649Y-34904035D01*
X127073867Y-34950005D01*
X127073870Y-34950006D01*
X127168366Y-34980709D01*
X127262864Y-35011413D01*
X127459139Y-35042500D01*
X127459140Y-35042500D01*
X127657860Y-35042500D01*
X127657861Y-35042500D01*
X127854136Y-35011413D01*
X128043132Y-34950005D01*
X128220194Y-34859787D01*
X128380964Y-34742981D01*
X128521481Y-34602464D01*
X128638287Y-34441694D01*
X128718015Y-34285218D01*
X128765990Y-34234423D01*
X128833811Y-34217628D01*
X128899946Y-34240165D01*
X128938984Y-34285218D01*
X129018713Y-34441694D01*
X129135519Y-34602464D01*
X129276036Y-34742981D01*
X129436806Y-34859787D01*
X129523649Y-34904035D01*
X129613867Y-34950005D01*
X129613870Y-34950006D01*
X129708366Y-34980709D01*
X129802864Y-35011413D01*
X129999139Y-35042500D01*
X129999140Y-35042500D01*
X130197860Y-35042500D01*
X130197861Y-35042500D01*
X130394136Y-35011413D01*
X130583132Y-34950005D01*
X130760194Y-34859787D01*
X130920964Y-34742981D01*
X131061481Y-34602464D01*
X131178287Y-34441694D01*
X131258015Y-34285218D01*
X131305990Y-34234423D01*
X131373811Y-34217628D01*
X131439946Y-34240165D01*
X131478984Y-34285218D01*
X131558713Y-34441694D01*
X131675519Y-34602464D01*
X131816036Y-34742981D01*
X131976806Y-34859787D01*
X132063649Y-34904035D01*
X132153867Y-34950005D01*
X132153870Y-34950006D01*
X132248366Y-34980709D01*
X132342864Y-35011413D01*
X132539139Y-35042500D01*
X132539140Y-35042500D01*
X132737860Y-35042500D01*
X132737861Y-35042500D01*
X132934136Y-35011413D01*
X133123132Y-34950005D01*
X133300194Y-34859787D01*
X133460964Y-34742981D01*
X133601481Y-34602464D01*
X133718287Y-34441694D01*
X133808505Y-34264632D01*
X133869913Y-34075636D01*
X133901000Y-33879361D01*
X133901000Y-33680639D01*
X133869913Y-33484364D01*
X133808505Y-33295368D01*
X133808505Y-33295367D01*
X133762535Y-33205149D01*
X133718287Y-33118306D01*
X133601481Y-32957536D01*
X133460964Y-32817019D01*
X133300194Y-32700213D01*
X133123132Y-32609994D01*
X133123129Y-32609993D01*
X132934137Y-32548587D01*
X132835998Y-32533043D01*
X132737861Y-32517500D01*
X132539139Y-32517500D01*
X132473714Y-32527862D01*
X132342862Y-32548587D01*
X132153870Y-32609993D01*
X132153867Y-32609994D01*
X131976805Y-32700213D01*
X131816033Y-32817021D01*
X131675521Y-32957533D01*
X131558713Y-33118305D01*
X131478985Y-33274780D01*
X131431010Y-33325576D01*
X131363189Y-33342371D01*
X131297054Y-33319833D01*
X131258015Y-33274780D01*
X131238679Y-33236832D01*
X131178287Y-33118306D01*
X131061481Y-32957536D01*
X130920964Y-32817019D01*
X130760194Y-32700213D01*
X130583132Y-32609994D01*
X130583129Y-32609993D01*
X130394137Y-32548587D01*
X130295998Y-32533043D01*
X130197861Y-32517500D01*
X129999139Y-32517500D01*
X129933714Y-32527862D01*
X129802862Y-32548587D01*
X129613870Y-32609993D01*
X129613867Y-32609994D01*
X129436805Y-32700213D01*
X129276033Y-32817021D01*
X129135521Y-32957533D01*
X129018713Y-33118305D01*
X128938985Y-33274780D01*
X128891010Y-33325576D01*
X128823189Y-33342371D01*
X128757054Y-33319833D01*
X128718015Y-33274780D01*
X128698679Y-33236832D01*
X128638287Y-33118306D01*
X128521481Y-32957536D01*
X128380964Y-32817019D01*
X128220194Y-32700213D01*
X128043132Y-32609994D01*
X128043129Y-32609993D01*
X127854137Y-32548587D01*
X127755998Y-32533043D01*
X127657861Y-32517500D01*
X127459139Y-32517500D01*
X127393714Y-32527862D01*
X127262862Y-32548587D01*
X127073870Y-32609993D01*
X127073867Y-32609994D01*
X126896805Y-32700213D01*
X126736033Y-32817021D01*
X126595521Y-32957533D01*
X126478713Y-33118305D01*
X126398985Y-33274780D01*
X126351010Y-33325576D01*
X126283189Y-33342371D01*
X126217054Y-33319833D01*
X126178015Y-33274780D01*
X126158679Y-33236832D01*
X126098287Y-33118306D01*
X125981481Y-32957536D01*
X125840964Y-32817019D01*
X125680194Y-32700213D01*
X125503132Y-32609994D01*
X125503129Y-32609993D01*
X125314137Y-32548587D01*
X125215998Y-32533043D01*
X125117861Y-32517500D01*
X124919139Y-32517500D01*
X124853714Y-32527862D01*
X124722862Y-32548587D01*
X124533870Y-32609993D01*
X124533867Y-32609994D01*
X124356805Y-32700213D01*
X124196033Y-32817021D01*
X124055521Y-32957533D01*
X123938713Y-33118305D01*
X123858985Y-33274780D01*
X123811010Y-33325576D01*
X123743189Y-33342371D01*
X123677054Y-33319833D01*
X123638015Y-33274780D01*
X123618679Y-33236832D01*
X123558287Y-33118306D01*
X123441481Y-32957536D01*
X123300964Y-32817019D01*
X123140194Y-32700213D01*
X122963132Y-32609994D01*
X122963129Y-32609993D01*
X122774137Y-32548587D01*
X122675998Y-32533043D01*
X122577861Y-32517500D01*
X122379139Y-32517500D01*
X122313714Y-32527862D01*
X122182862Y-32548587D01*
X121993870Y-32609993D01*
X121993867Y-32609994D01*
X121816805Y-32700213D01*
X121656033Y-32817021D01*
X121515521Y-32957533D01*
X121398713Y-33118305D01*
X121318704Y-33275331D01*
X121270729Y-33326127D01*
X121202908Y-33342922D01*
X121136773Y-33320384D01*
X121097734Y-33275331D01*
X121017858Y-33118567D01*
X120990768Y-33081283D01*
X120376147Y-33695904D01*
X120352708Y-33608429D01*
X120294189Y-33507070D01*
X120211430Y-33424311D01*
X120110071Y-33365792D01*
X120022594Y-33342352D01*
X120637216Y-32727731D01*
X120637215Y-32727730D01*
X120599932Y-32700641D01*
X120422937Y-32610457D01*
X120234022Y-32549075D01*
X120037821Y-32518000D01*
X119839179Y-32518000D01*
X119642979Y-32549075D01*
X119642976Y-32549075D01*
X119454062Y-32610457D01*
X119277064Y-32700643D01*
X119239783Y-32727729D01*
X119239782Y-32727730D01*
X119854406Y-33342352D01*
X119766929Y-33365792D01*
X119665570Y-33424311D01*
X119582811Y-33507070D01*
X119524292Y-33608429D01*
X119500852Y-33695905D01*
X118886230Y-33081282D01*
X118886229Y-33081283D01*
X118859141Y-33118566D01*
X118779264Y-33275332D01*
X118731290Y-33326127D01*
X118663469Y-33342922D01*
X118597334Y-33320384D01*
X118558296Y-33275332D01*
X118478287Y-33118306D01*
X118361481Y-32957536D01*
X118220964Y-32817019D01*
X118060194Y-32700213D01*
X117883132Y-32609994D01*
X117883129Y-32609993D01*
X117694137Y-32548587D01*
X117595998Y-32533043D01*
X117497861Y-32517500D01*
X117299139Y-32517500D01*
X117233714Y-32527862D01*
X117102862Y-32548587D01*
X116913870Y-32609993D01*
X116913867Y-32609994D01*
X116736805Y-32700213D01*
X116576033Y-32817021D01*
X116435521Y-32957533D01*
X116318713Y-33118305D01*
X116228494Y-33295367D01*
X116228493Y-33295370D01*
X116167087Y-33484362D01*
X116136000Y-33680639D01*
X114900500Y-33680639D01*
X114900500Y-31324500D01*
X114920185Y-31257461D01*
X114972989Y-31211706D01*
X115024500Y-31200500D01*
X156675500Y-31200500D01*
X156742539Y-31220185D01*
G37*
%TD.AperFunction*%
%TD*%
M02*
