%TF.GenerationSoftware,KiCad,Pcbnew,9.0.2*%
%TF.CreationDate,2025-08-03T00:22:43-03:00*%
%TF.ProjectId,hermes,6865726d-6573-42e6-9b69-6361645f7063,rev?*%
%TF.SameCoordinates,Original*%
%TF.FileFunction,Copper,L1,Top*%
%TF.FilePolarity,Positive*%
%FSLAX46Y46*%
G04 Gerber Fmt 4.6, Leading zero omitted, Abs format (unit mm)*
G04 Created by KiCad (PCBNEW 9.0.2) date 2025-08-03 00:22:43*
%MOMM*%
%LPD*%
G01*
G04 APERTURE LIST*
G04 Aperture macros list*
%AMRoundRect*
0 Rectangle with rounded corners*
0 $1 Rounding radius*
0 $2 $3 $4 $5 $6 $7 $8 $9 X,Y pos of 4 corners*
0 Add a 4 corners polygon primitive as box body*
4,1,4,$2,$3,$4,$5,$6,$7,$8,$9,$2,$3,0*
0 Add four circle primitives for the rounded corners*
1,1,$1+$1,$2,$3*
1,1,$1+$1,$4,$5*
1,1,$1+$1,$6,$7*
1,1,$1+$1,$8,$9*
0 Add four rect primitives between the rounded corners*
20,1,$1+$1,$2,$3,$4,$5,0*
20,1,$1+$1,$4,$5,$6,$7,0*
20,1,$1+$1,$6,$7,$8,$9,0*
20,1,$1+$1,$8,$9,$2,$3,0*%
G04 Aperture macros list end*
%TA.AperFunction,SMDPad,CuDef*%
%ADD10RoundRect,0.250000X-0.325000X-0.650000X0.325000X-0.650000X0.325000X0.650000X-0.325000X0.650000X0*%
%TD*%
%TA.AperFunction,SMDPad,CuDef*%
%ADD11RoundRect,0.027500X-0.292500X-0.082500X0.292500X-0.082500X0.292500X0.082500X-0.292500X0.082500X0*%
%TD*%
%TA.AperFunction,SMDPad,CuDef*%
%ADD12RoundRect,0.027500X-0.082500X-0.292500X0.082500X-0.292500X0.082500X0.292500X-0.082500X0.292500X0*%
%TD*%
%TA.AperFunction,SMDPad,CuDef*%
%ADD13R,1.540000X1.700000*%
%TD*%
%TA.AperFunction,SMDPad,CuDef*%
%ADD14RoundRect,0.152400X-0.609600X1.063600X-0.609600X-1.063600X0.609600X-1.063600X0.609600X1.063600X0*%
%TD*%
%TA.AperFunction,ComponentPad*%
%ADD15C,1.524000*%
%TD*%
%TA.AperFunction,SMDPad,CuDef*%
%ADD16RoundRect,0.152400X0.609600X-1.063600X0.609600X1.063600X-0.609600X1.063600X-0.609600X-1.063600X0*%
%TD*%
%TA.AperFunction,ComponentPad*%
%ADD17C,1.600000*%
%TD*%
%TA.AperFunction,ComponentPad*%
%ADD18R,1.508000X1.508000*%
%TD*%
%TA.AperFunction,ComponentPad*%
%ADD19C,1.508000*%
%TD*%
%TA.AperFunction,ViaPad*%
%ADD20C,0.600000*%
%TD*%
%TA.AperFunction,Conductor*%
%ADD21C,0.150000*%
%TD*%
G04 APERTURE END LIST*
D10*
%TO.P,C1,1*%
%TO.N,VCC*%
X142585000Y-47000000D03*
%TO.P,C1,2*%
%TO.N,GND*%
X145535000Y-47000000D03*
%TD*%
%TO.P,C3,1*%
%TO.N,VCC*%
X142685000Y-54400000D03*
%TO.P,C3,2*%
%TO.N,GND*%
X145635000Y-54400000D03*
%TD*%
D11*
%TO.P,U2,1*%
%TO.N,N/C*%
X134405000Y-53000000D03*
%TO.P,U2,2*%
X134405000Y-53400000D03*
%TO.P,U2,3*%
X134405000Y-53800000D03*
%TO.P,U2,4*%
X134405000Y-54200000D03*
%TO.P,U2,5*%
X134405000Y-54600000D03*
%TO.P,U2,6*%
X134405000Y-55000000D03*
D12*
%TO.P,U2,7,AUX_CL*%
%TO.N,unconnected-(U2-AUX_CL-Pad7)*%
X134950000Y-55545000D03*
%TO.P,U2,8,VDDIO*%
%TO.N,VCC*%
X135350000Y-55545000D03*
%TO.P,U2,9,AD0/SDO*%
%TO.N,unconnected-(U2-AD0{slash}SDO-Pad9)*%
X135750000Y-55545000D03*
%TO.P,U2,10,REGOUT*%
%TO.N,Net-(U2-REGOUT)*%
X136150000Y-55545000D03*
%TO.P,U2,11,FSYNC*%
%TO.N,GND*%
X136550000Y-55545000D03*
%TO.P,U2,12,INT*%
%TO.N,INT*%
X136950000Y-55545000D03*
D11*
%TO.P,U2,13,VDD*%
%TO.N,VCC*%
X137495000Y-55000000D03*
%TO.P,U2,14*%
%TO.N,N/C*%
X137495000Y-54600000D03*
%TO.P,U2,15*%
X137495000Y-54200000D03*
%TO.P,U2,16*%
X137495000Y-53800000D03*
%TO.P,U2,17*%
X137495000Y-53400000D03*
%TO.P,U2,18,GND*%
%TO.N,GND*%
X137495000Y-53000000D03*
D12*
%TO.P,U2,19,RESV_1*%
%TO.N,unconnected-(U2-RESV_1-Pad19)*%
X136950000Y-52455000D03*
%TO.P,U2,20,RESV_2*%
%TO.N,GND*%
X136550000Y-52455000D03*
%TO.P,U2,21,AUX_DA*%
%TO.N,unconnected-(U2-AUX_DA-Pad21)*%
X136150000Y-52455000D03*
%TO.P,U2,22,NCS*%
%TO.N,unconnected-(U2-NCS-Pad22)*%
X135750000Y-52455000D03*
%TO.P,U2,23,SCL/SCLK*%
%TO.N,SCL*%
X135350000Y-52455000D03*
%TO.P,U2,24,SDA/SDI*%
%TO.N,SDA*%
X134950000Y-52455000D03*
D13*
%TO.P,U2,25,EXP*%
%TO.N,unconnected-(U2-EXP-Pad25)*%
X135950000Y-54000000D03*
%TD*%
D14*
%TO.P,U1,1,GPIO26/ADC0/A0*%
%TO.N,unconnected-(U1-GPIO26{slash}ADC0{slash}A0-Pad1)*%
X117398500Y-49855000D03*
D15*
X117398500Y-49020000D03*
D14*
%TO.P,U1,2,GPIO27/ADC1/A1*%
%TO.N,unconnected-(U1-GPIO27{slash}ADC1{slash}A1-Pad2)*%
X119938500Y-49855000D03*
D15*
X119938500Y-49020000D03*
D14*
%TO.P,U1,3,GPIO28/ADC2/A2*%
%TO.N,unconnected-(U1-GPIO28{slash}ADC2{slash}A2-Pad3)*%
X122478500Y-49855000D03*
D15*
X122478500Y-49020000D03*
D14*
%TO.P,U1,4,GPIO29/ADC3/A3*%
%TO.N,unconnected-(U1-GPIO29{slash}ADC3{slash}A3-Pad4)*%
X125018500Y-49855000D03*
D15*
X125018500Y-49020000D03*
D14*
%TO.P,U1,5,GPIO6/SDA*%
%TO.N,SDA*%
X127558500Y-49855000D03*
D15*
X127558500Y-49020000D03*
D14*
%TO.P,U1,6,GPIO7/SCL*%
%TO.N,SCL*%
X130098500Y-49855000D03*
D15*
X130098500Y-49020000D03*
D14*
%TO.P,U1,7,GPIO0/TX*%
%TO.N,INT*%
X132638500Y-49855000D03*
D15*
X132638500Y-49020000D03*
%TO.P,U1,8,GPIO1/RX*%
%TO.N,unconnected-(U1-GPIO1{slash}RX-Pad8)*%
X132638500Y-33780000D03*
D16*
X132638500Y-32945000D03*
D15*
%TO.P,U1,9,GPIO2/SCK*%
%TO.N,unconnected-(U1-GPIO2{slash}SCK-Pad9)*%
X130098500Y-33780000D03*
D16*
X130098500Y-32945000D03*
D15*
%TO.P,U1,10,GPIO4/MISO*%
%TO.N,unconnected-(U1-GPIO4{slash}MISO-Pad10)*%
X127558500Y-33780000D03*
D16*
X127558500Y-32945000D03*
D15*
%TO.P,U1,11,GPIO3/MOSI*%
%TO.N,unconnected-(U1-GPIO3{slash}MOSI-Pad11)*%
X125018500Y-33780000D03*
D16*
X125018500Y-32945000D03*
D15*
%TO.P,U1,12,3V3*%
%TO.N,VCC*%
X122478500Y-33780000D03*
D16*
X122478500Y-32945000D03*
D15*
%TO.P,U1,13,GND*%
%TO.N,GND*%
X119938500Y-33780000D03*
D16*
X119938500Y-32945000D03*
D15*
%TO.P,U1,14,VBUS*%
%TO.N,unconnected-(U1-VBUS-Pad14)*%
X117398500Y-33780000D03*
D16*
X117398500Y-32945000D03*
%TD*%
D17*
%TO.P,R1,1*%
%TO.N,SCL*%
X140150000Y-35600000D03*
%TO.P,R1,2*%
%TO.N,VCC*%
X147770000Y-35600000D03*
%TD*%
D18*
%TO.P,DS1,1,VDD*%
%TO.N,VCC*%
X132140000Y-59100000D03*
D19*
%TO.P,DS1,2,GND*%
%TO.N,GND*%
X134680000Y-59100000D03*
%TO.P,DS1,3,SCK*%
%TO.N,SCL*%
X137220000Y-59100000D03*
%TO.P,DS1,4,SDA*%
%TO.N,SDA*%
X139760000Y-59100000D03*
%TD*%
D17*
%TO.P,R2,1*%
%TO.N,SDA*%
X140140000Y-42200000D03*
%TO.P,R2,2*%
%TO.N,VCC*%
X147760000Y-42200000D03*
%TD*%
D10*
%TO.P,C2,1*%
%TO.N,Net-(U2-REGOUT)*%
X142585000Y-51100000D03*
%TO.P,C2,2*%
%TO.N,GND*%
X145535000Y-51100000D03*
%TD*%
D20*
%TO.N,*%
X126950000Y-51700000D03*
%TO.N,VCC*%
X134750000Y-57575000D03*
X140850000Y-56000000D03*
X138850000Y-55800000D03*
X134250000Y-56425000D03*
X126050000Y-37400000D03*
X138360913Y-54510913D03*
X126056500Y-52421088D03*
X131750000Y-53300000D03*
%TO.N,GND*%
X123350000Y-55500000D03*
%TO.N,SDA*%
X127650000Y-42200000D03*
X127650000Y-53200000D03*
%TO.N,SCL*%
X135550000Y-51300000D03*
X138523514Y-58478634D03*
%TO.N,Net-(U2-REGOUT)*%
X137551000Y-56376301D03*
X135895372Y-56361368D03*
%TO.N,INT*%
X137050000Y-57000000D03*
X132654686Y-51284000D03*
%TD*%
D21*
%TO.N,VCC*%
X147760000Y-42200000D02*
X142960000Y-47000000D01*
X142685000Y-54400000D02*
X141085000Y-56000000D01*
X122478500Y-33780000D02*
X126056500Y-37358000D01*
X141085000Y-56000000D02*
X140850000Y-56000000D01*
X132140000Y-53690000D02*
X132140000Y-58687500D01*
X131274000Y-53776000D02*
X131750000Y-53300000D01*
X126056500Y-37358000D02*
X126056500Y-37393500D01*
X138360913Y-54539065D02*
X137899978Y-55000000D01*
X139050000Y-56000000D02*
X138850000Y-55800000D01*
X135017152Y-56425000D02*
X134250000Y-56425000D01*
X126056500Y-52421088D02*
X127411412Y-53776000D01*
X131750000Y-53300000D02*
X132140000Y-53690000D01*
X138360913Y-54510913D02*
X138360913Y-54539065D01*
X147770000Y-42190000D02*
X147760000Y-42200000D01*
X144684000Y-52401000D02*
X142685000Y-54400000D01*
X126056500Y-37393500D02*
X126050000Y-37400000D01*
X135350000Y-56092152D02*
X134750000Y-56692152D01*
X147770000Y-35600000D02*
X147770000Y-42190000D01*
X135350000Y-55545000D02*
X135350000Y-56092152D01*
X142960000Y-47000000D02*
X142585000Y-47000000D01*
X135350000Y-56092152D02*
X135017152Y-56425000D01*
X127411412Y-53776000D02*
X131274000Y-53776000D01*
X144684000Y-49099000D02*
X144684000Y-52401000D01*
X137899978Y-55000000D02*
X137495000Y-55000000D01*
X140850000Y-56000000D02*
X139050000Y-56000000D01*
X142585000Y-47000000D02*
X144684000Y-49099000D01*
X134750000Y-56692152D02*
X134750000Y-57575000D01*
%TO.N,GND*%
X134680000Y-58687500D02*
X134680000Y-58555412D01*
X119938500Y-34355658D02*
X119938500Y-33076000D01*
X119938500Y-33780000D02*
X119950000Y-33791500D01*
X136550000Y-55545000D02*
X136536000Y-55559000D01*
%TO.N,SDA*%
X133650000Y-52950022D02*
X133650000Y-59526640D01*
X134950000Y-52455000D02*
X134145022Y-52455000D01*
X127650000Y-42200000D02*
X140140000Y-42200000D01*
X127650000Y-53200000D02*
X129413500Y-53200000D01*
X129413500Y-53200000D02*
X130158500Y-52455000D01*
X130158500Y-52455000D02*
X134950000Y-52455000D01*
X134145022Y-52455000D02*
X133650000Y-52950022D01*
X138317500Y-60130000D02*
X139760000Y-58687500D01*
X130158500Y-52455000D02*
X127558500Y-49855000D01*
X134253360Y-60130000D02*
X138317500Y-60130000D01*
X133650000Y-59526640D02*
X134253360Y-60130000D01*
X127558500Y-49598272D02*
X127558500Y-49020000D01*
%TO.N,SCL*%
X135550000Y-51300000D02*
X135550000Y-50463546D01*
X138523514Y-58478634D02*
X137428866Y-58478634D01*
X141216000Y-36666000D02*
X140150000Y-35600000D01*
X135550000Y-51300000D02*
X135350000Y-51500000D01*
X135158978Y-51859000D02*
X135350000Y-52050022D01*
X130098500Y-49855000D02*
X132102500Y-51859000D01*
X135550000Y-50463546D02*
X141216000Y-44797546D01*
X141216000Y-44797546D02*
X141216000Y-36666000D01*
X135350000Y-51500000D02*
X135350000Y-52455000D01*
X132102500Y-51859000D02*
X135158978Y-51859000D01*
X135350000Y-52050022D02*
X135350000Y-52455000D01*
X137428866Y-58478634D02*
X137220000Y-58687500D01*
%TO.N,Net-(U2-REGOUT)*%
X136150000Y-56106740D02*
X135895372Y-56361368D01*
X137544000Y-56141000D02*
X142585000Y-51100000D01*
X137544000Y-56194000D02*
X137544000Y-56141000D01*
X137551000Y-56376301D02*
X137551000Y-56201000D01*
X137551000Y-56201000D02*
X137544000Y-56194000D01*
X136150000Y-55545000D02*
X136150000Y-56106740D01*
%TO.N,INT*%
X132638500Y-51267814D02*
X132654686Y-51284000D01*
X137050000Y-57000000D02*
X136950000Y-56900000D01*
X132638500Y-49020000D02*
X132638500Y-51267814D01*
X136950000Y-56900000D02*
X136950000Y-55545000D01*
%TD*%
%TA.AperFunction,Conductor*%
%TO.N,GND*%
G36*
X135653381Y-57127929D02*
G01*
X135661674Y-57131022D01*
X135661870Y-57131103D01*
X135661875Y-57131105D01*
X135812604Y-57161087D01*
X135816525Y-57161867D01*
X135816528Y-57161868D01*
X135816530Y-57161868D01*
X135974216Y-57161868D01*
X136037480Y-57149283D01*
X136128869Y-57131105D01*
X136128871Y-57131103D01*
X136133290Y-57130225D01*
X136202882Y-57136452D01*
X136258059Y-57179314D01*
X136279098Y-57227644D01*
X136280261Y-57233490D01*
X136280264Y-57233501D01*
X136340602Y-57379172D01*
X136340609Y-57379185D01*
X136428210Y-57510288D01*
X136428213Y-57510292D01*
X136539707Y-57621786D01*
X136539711Y-57621789D01*
X136670814Y-57709390D01*
X136670821Y-57709394D01*
X136706455Y-57724154D01*
X136760858Y-57767994D01*
X136782924Y-57834287D01*
X136765646Y-57901987D01*
X136715298Y-57949199D01*
X136562500Y-58027054D01*
X136562499Y-58027055D01*
X136402753Y-58143115D01*
X136263115Y-58282753D01*
X136147058Y-58442495D01*
X136057408Y-58618441D01*
X135996389Y-58806236D01*
X135965500Y-59001263D01*
X135965500Y-59198736D01*
X135996390Y-59393766D01*
X135997528Y-59398506D01*
X135996066Y-59398856D01*
X135997871Y-59462022D01*
X135961791Y-59521855D01*
X135899090Y-59552684D01*
X135877945Y-59554500D01*
X134543102Y-59554500D01*
X134476063Y-59534815D01*
X134455421Y-59518181D01*
X134261819Y-59324579D01*
X134228334Y-59263256D01*
X134225500Y-59236898D01*
X134225500Y-58409779D01*
X134245185Y-58342740D01*
X134297989Y-58296985D01*
X134367147Y-58287041D01*
X134396952Y-58295218D01*
X134508420Y-58341389D01*
X134516503Y-58344737D01*
X134671153Y-58375499D01*
X134671156Y-58375500D01*
X134671158Y-58375500D01*
X134828844Y-58375500D01*
X134828845Y-58375499D01*
X134983497Y-58344737D01*
X135129179Y-58284394D01*
X135260289Y-58196789D01*
X135371789Y-58085289D01*
X135459394Y-57954179D01*
X135519737Y-57808497D01*
X135550500Y-57653842D01*
X135550500Y-57496158D01*
X135550500Y-57496155D01*
X135550499Y-57496153D01*
X135519738Y-57341510D01*
X135519737Y-57341503D01*
X135499660Y-57293034D01*
X135492192Y-57223567D01*
X135523467Y-57161087D01*
X135583556Y-57125435D01*
X135653381Y-57127929D01*
G37*
%TD.AperFunction*%
%TA.AperFunction,Conductor*%
G36*
X116314137Y-31220185D02*
G01*
X116359892Y-31272989D01*
X116369836Y-31342147D01*
X116340811Y-31405703D01*
X116334779Y-31412181D01*
X116268912Y-31478047D01*
X116268905Y-31478056D01*
X116184935Y-31620042D01*
X116184934Y-31620045D01*
X116138913Y-31778447D01*
X116138912Y-31778453D01*
X116136000Y-31815458D01*
X116136000Y-34074541D01*
X116138912Y-34111546D01*
X116138913Y-34111552D01*
X116184934Y-34269954D01*
X116184935Y-34269957D01*
X116268905Y-34411943D01*
X116268906Y-34411944D01*
X116268908Y-34411947D01*
X116365108Y-34508147D01*
X116377740Y-34522938D01*
X116435519Y-34602464D01*
X116576036Y-34742981D01*
X116736806Y-34859787D01*
X116823649Y-34904035D01*
X116913867Y-34950005D01*
X116913870Y-34950006D01*
X117008366Y-34980709D01*
X117102864Y-35011413D01*
X117299139Y-35042500D01*
X117299140Y-35042500D01*
X117497860Y-35042500D01*
X117497861Y-35042500D01*
X117694136Y-35011413D01*
X117883132Y-34950005D01*
X118060194Y-34859787D01*
X118220964Y-34742981D01*
X118361481Y-34602464D01*
X118419262Y-34522933D01*
X118424507Y-34516213D01*
X118428018Y-34512019D01*
X118528092Y-34411947D01*
X118567218Y-34345787D01*
X118573720Y-34338024D01*
X118594698Y-34324035D01*
X118613126Y-34306830D01*
X118623272Y-34304984D01*
X118631853Y-34299263D01*
X118657065Y-34298837D01*
X118681868Y-34294326D01*
X118691399Y-34298258D01*
X118701712Y-34298084D01*
X118723150Y-34311356D01*
X118746458Y-34320971D01*
X118755456Y-34331355D01*
X118761120Y-34334862D01*
X118764338Y-34341606D01*
X118775522Y-34354513D01*
X118809303Y-34411634D01*
X118809307Y-34411639D01*
X118881307Y-34483638D01*
X119500852Y-33864093D01*
X119524292Y-33951571D01*
X119582811Y-34052930D01*
X119665570Y-34135689D01*
X119766929Y-34194208D01*
X119854405Y-34217647D01*
X119239783Y-34832268D01*
X119239783Y-34832269D01*
X119277067Y-34859358D01*
X119454062Y-34949542D01*
X119642977Y-35010924D01*
X119839179Y-35042000D01*
X120037821Y-35042000D01*
X120234020Y-35010924D01*
X120234023Y-35010924D01*
X120422937Y-34949542D01*
X120599925Y-34859362D01*
X120637216Y-34832268D01*
X120022595Y-34217647D01*
X120110071Y-34194208D01*
X120211430Y-34135689D01*
X120294189Y-34052930D01*
X120352708Y-33951571D01*
X120376147Y-33864094D01*
X120995691Y-34483639D01*
X121067695Y-34411635D01*
X121101476Y-34354514D01*
X121152545Y-34306830D01*
X121221287Y-34294326D01*
X121285876Y-34320971D01*
X121303279Y-34338024D01*
X121309783Y-34345791D01*
X121348908Y-34411947D01*
X121448980Y-34512019D01*
X121452492Y-34516213D01*
X121453009Y-34517399D01*
X121457740Y-34522938D01*
X121515519Y-34602464D01*
X121656036Y-34742981D01*
X121816806Y-34859787D01*
X121903649Y-34904035D01*
X121993867Y-34950005D01*
X121993870Y-34950006D01*
X122088366Y-34980709D01*
X122182864Y-35011413D01*
X122379139Y-35042500D01*
X122379140Y-35042500D01*
X122577860Y-35042500D01*
X122577861Y-35042500D01*
X122774136Y-35011413D01*
X122793873Y-35004999D01*
X122863710Y-35003004D01*
X122919870Y-35035250D01*
X125213181Y-37328561D01*
X125246666Y-37389884D01*
X125249500Y-37416242D01*
X125249500Y-37478846D01*
X125280261Y-37633489D01*
X125280264Y-37633501D01*
X125340602Y-37779172D01*
X125340609Y-37779185D01*
X125428210Y-37910288D01*
X125428213Y-37910292D01*
X125539707Y-38021786D01*
X125539711Y-38021789D01*
X125670814Y-38109390D01*
X125670827Y-38109397D01*
X125816498Y-38169735D01*
X125816503Y-38169737D01*
X125971153Y-38200499D01*
X125971156Y-38200500D01*
X125971158Y-38200500D01*
X126128844Y-38200500D01*
X126128845Y-38200499D01*
X126283497Y-38169737D01*
X126429179Y-38109394D01*
X126560289Y-38021789D01*
X126671789Y-37910289D01*
X126759394Y-37779179D01*
X126819737Y-37633497D01*
X126850500Y-37478842D01*
X126850500Y-37321158D01*
X126850500Y-37321155D01*
X126850499Y-37321153D01*
X126819738Y-37166510D01*
X126819737Y-37166503D01*
X126819735Y-37166498D01*
X126759397Y-37020827D01*
X126759390Y-37020814D01*
X126671789Y-36889711D01*
X126671786Y-36889707D01*
X126560292Y-36778213D01*
X126560288Y-36778210D01*
X126429185Y-36690609D01*
X126429172Y-36690602D01*
X126283501Y-36630264D01*
X126283491Y-36630261D01*
X126144558Y-36602625D01*
X126082647Y-36570240D01*
X126081069Y-36568689D01*
X124756184Y-35243804D01*
X124722699Y-35182481D01*
X124727683Y-35112789D01*
X124769555Y-35056856D01*
X124835019Y-35032439D01*
X124863262Y-35033649D01*
X124919139Y-35042500D01*
X124919140Y-35042500D01*
X125117860Y-35042500D01*
X125117861Y-35042500D01*
X125314136Y-35011413D01*
X125503132Y-34950005D01*
X125680194Y-34859787D01*
X125840964Y-34742981D01*
X125981481Y-34602464D01*
X126039262Y-34522933D01*
X126044539Y-34516175D01*
X126048037Y-34512000D01*
X126148092Y-34411947D01*
X126186939Y-34346259D01*
X126193462Y-34338477D01*
X126214427Y-34324509D01*
X126232837Y-34307321D01*
X126243005Y-34305471D01*
X126251610Y-34299739D01*
X126276799Y-34299324D01*
X126301579Y-34294817D01*
X126311134Y-34298759D01*
X126321470Y-34298589D01*
X126342879Y-34311854D01*
X126366168Y-34321462D01*
X126375191Y-34331875D01*
X126380863Y-34335390D01*
X126384075Y-34342128D01*
X126395232Y-34355004D01*
X126428905Y-34411943D01*
X126428908Y-34411947D01*
X126525108Y-34508147D01*
X126537740Y-34522938D01*
X126595519Y-34602464D01*
X126736036Y-34742981D01*
X126896806Y-34859787D01*
X126983649Y-34904035D01*
X127073867Y-34950005D01*
X127073870Y-34950006D01*
X127168366Y-34980709D01*
X127262864Y-35011413D01*
X127459139Y-35042500D01*
X127459140Y-35042500D01*
X127657860Y-35042500D01*
X127657861Y-35042500D01*
X127854136Y-35011413D01*
X128043132Y-34950005D01*
X128220194Y-34859787D01*
X128380964Y-34742981D01*
X128521481Y-34602464D01*
X128579262Y-34522933D01*
X128584539Y-34516175D01*
X128588037Y-34512000D01*
X128688092Y-34411947D01*
X128726939Y-34346259D01*
X128733462Y-34338477D01*
X128754427Y-34324509D01*
X128772837Y-34307321D01*
X128783005Y-34305471D01*
X128791610Y-34299739D01*
X128816799Y-34299324D01*
X128841579Y-34294817D01*
X128851134Y-34298759D01*
X128861470Y-34298589D01*
X128882879Y-34311854D01*
X128906168Y-34321462D01*
X128915191Y-34331875D01*
X128920863Y-34335390D01*
X128924075Y-34342128D01*
X128935232Y-34355004D01*
X128968905Y-34411943D01*
X128968908Y-34411947D01*
X129065108Y-34508147D01*
X129077740Y-34522938D01*
X129135519Y-34602464D01*
X129276036Y-34742981D01*
X129436806Y-34859787D01*
X129523649Y-34904035D01*
X129613867Y-34950005D01*
X129613870Y-34950006D01*
X129708366Y-34980709D01*
X129802864Y-35011413D01*
X129999139Y-35042500D01*
X129999140Y-35042500D01*
X130197860Y-35042500D01*
X130197861Y-35042500D01*
X130394136Y-35011413D01*
X130583132Y-34950005D01*
X130760194Y-34859787D01*
X130920964Y-34742981D01*
X131061481Y-34602464D01*
X131119262Y-34522933D01*
X131124539Y-34516175D01*
X131128037Y-34512000D01*
X131228092Y-34411947D01*
X131266939Y-34346259D01*
X131273462Y-34338477D01*
X131294427Y-34324509D01*
X131312837Y-34307321D01*
X131323005Y-34305471D01*
X131331610Y-34299739D01*
X131356799Y-34299324D01*
X131381579Y-34294817D01*
X131391134Y-34298759D01*
X131401470Y-34298589D01*
X131422879Y-34311854D01*
X131446168Y-34321462D01*
X131455191Y-34331875D01*
X131460863Y-34335390D01*
X131464075Y-34342128D01*
X131475232Y-34355004D01*
X131508905Y-34411943D01*
X131508908Y-34411947D01*
X131605108Y-34508147D01*
X131617740Y-34522938D01*
X131675519Y-34602464D01*
X131816036Y-34742981D01*
X131976806Y-34859787D01*
X132063649Y-34904035D01*
X132153867Y-34950005D01*
X132153870Y-34950006D01*
X132248366Y-34980709D01*
X132342864Y-35011413D01*
X132539139Y-35042500D01*
X132539140Y-35042500D01*
X132737860Y-35042500D01*
X132737861Y-35042500D01*
X132934136Y-35011413D01*
X133123132Y-34950005D01*
X133300194Y-34859787D01*
X133460964Y-34742981D01*
X133601481Y-34602464D01*
X133659260Y-34522936D01*
X133671889Y-34508148D01*
X133768092Y-34411947D01*
X133852064Y-34269959D01*
X133898087Y-34111548D01*
X133901000Y-34074534D01*
X133901000Y-31815466D01*
X133898087Y-31778452D01*
X133852064Y-31620041D01*
X133768092Y-31478053D01*
X133768090Y-31478051D01*
X133768087Y-31478047D01*
X133702221Y-31412181D01*
X133668736Y-31350858D01*
X133673720Y-31281166D01*
X133715592Y-31225233D01*
X133781056Y-31200816D01*
X133789902Y-31200500D01*
X156675500Y-31200500D01*
X156742539Y-31220185D01*
X156788294Y-31272989D01*
X156799500Y-31324500D01*
X156799500Y-91575500D01*
X156779815Y-91642539D01*
X156727011Y-91688294D01*
X156675500Y-91699500D01*
X115024500Y-91699500D01*
X114957461Y-91679815D01*
X114911706Y-91627011D01*
X114900500Y-91575500D01*
X114900500Y-89385258D01*
X118449500Y-89385258D01*
X118449500Y-89614741D01*
X118474446Y-89804215D01*
X118479452Y-89842238D01*
X118479453Y-89842240D01*
X118538842Y-90063887D01*
X118626650Y-90275876D01*
X118626657Y-90275890D01*
X118741392Y-90474617D01*
X118881081Y-90656661D01*
X118881089Y-90656670D01*
X119043330Y-90818911D01*
X119043338Y-90818918D01*
X119225382Y-90958607D01*
X119225385Y-90958608D01*
X119225388Y-90958611D01*
X119424112Y-91073344D01*
X119424117Y-91073346D01*
X119424123Y-91073349D01*
X119515480Y-91111190D01*
X119636113Y-91161158D01*
X119857762Y-91220548D01*
X120085266Y-91250500D01*
X120085273Y-91250500D01*
X120314727Y-91250500D01*
X120314734Y-91250500D01*
X120542238Y-91220548D01*
X120763887Y-91161158D01*
X120975888Y-91073344D01*
X121174612Y-90958611D01*
X121356661Y-90818919D01*
X121356665Y-90818914D01*
X121356670Y-90818911D01*
X121518911Y-90656670D01*
X121518914Y-90656665D01*
X121518919Y-90656661D01*
X121658611Y-90474612D01*
X121773344Y-90275888D01*
X121861158Y-90063887D01*
X121920548Y-89842238D01*
X121950500Y-89614734D01*
X121950500Y-89385266D01*
X121950499Y-89385258D01*
X149949500Y-89385258D01*
X149949500Y-89614741D01*
X149974446Y-89804215D01*
X149979452Y-89842238D01*
X149979453Y-89842240D01*
X150038842Y-90063887D01*
X150126650Y-90275876D01*
X150126657Y-90275890D01*
X150241392Y-90474617D01*
X150381081Y-90656661D01*
X150381089Y-90656670D01*
X150543330Y-90818911D01*
X150543338Y-90818918D01*
X150725382Y-90958607D01*
X150725385Y-90958608D01*
X150725388Y-90958611D01*
X150924112Y-91073344D01*
X150924117Y-91073346D01*
X150924123Y-91073349D01*
X151015480Y-91111190D01*
X151136113Y-91161158D01*
X151357762Y-91220548D01*
X151585266Y-91250500D01*
X151585273Y-91250500D01*
X151814727Y-91250500D01*
X151814734Y-91250500D01*
X152042238Y-91220548D01*
X152263887Y-91161158D01*
X152475888Y-91073344D01*
X152674612Y-90958611D01*
X152856661Y-90818919D01*
X152856665Y-90818914D01*
X152856670Y-90818911D01*
X153018911Y-90656670D01*
X153018914Y-90656665D01*
X153018919Y-90656661D01*
X153158611Y-90474612D01*
X153273344Y-90275888D01*
X153361158Y-90063887D01*
X153420548Y-89842238D01*
X153450500Y-89614734D01*
X153450500Y-89385266D01*
X153420548Y-89157762D01*
X153361158Y-88936113D01*
X153273344Y-88724112D01*
X153158611Y-88525388D01*
X153158608Y-88525385D01*
X153158607Y-88525382D01*
X153018918Y-88343338D01*
X153018911Y-88343330D01*
X152856670Y-88181089D01*
X152856661Y-88181081D01*
X152674617Y-88041392D01*
X152475890Y-87926657D01*
X152475876Y-87926650D01*
X152263887Y-87838842D01*
X152042238Y-87779452D01*
X152004215Y-87774446D01*
X151814741Y-87749500D01*
X151814734Y-87749500D01*
X151585266Y-87749500D01*
X151585258Y-87749500D01*
X151368715Y-87778009D01*
X151357762Y-87779452D01*
X151264076Y-87804554D01*
X151136112Y-87838842D01*
X150924123Y-87926650D01*
X150924109Y-87926657D01*
X150725382Y-88041392D01*
X150543338Y-88181081D01*
X150381081Y-88343338D01*
X150241392Y-88525382D01*
X150126657Y-88724109D01*
X150126650Y-88724123D01*
X150038842Y-88936112D01*
X149979453Y-89157759D01*
X149979451Y-89157770D01*
X149949500Y-89385258D01*
X121950499Y-89385258D01*
X121920548Y-89157762D01*
X121861158Y-88936113D01*
X121773344Y-88724112D01*
X121658611Y-88525388D01*
X121658608Y-88525385D01*
X121658607Y-88525382D01*
X121518918Y-88343338D01*
X121518911Y-88343330D01*
X121356670Y-88181089D01*
X121356661Y-88181081D01*
X121174617Y-88041392D01*
X120975890Y-87926657D01*
X120975876Y-87926650D01*
X120763887Y-87838842D01*
X120542238Y-87779452D01*
X120504215Y-87774446D01*
X120314741Y-87749500D01*
X120314734Y-87749500D01*
X120085266Y-87749500D01*
X120085258Y-87749500D01*
X119868715Y-87778009D01*
X119857762Y-87779452D01*
X119764076Y-87804554D01*
X119636112Y-87838842D01*
X119424123Y-87926650D01*
X119424109Y-87926657D01*
X119225382Y-88041392D01*
X119043338Y-88181081D01*
X118881081Y-88343338D01*
X118741392Y-88525382D01*
X118626657Y-88724109D01*
X118626650Y-88724123D01*
X118538842Y-88936112D01*
X118479453Y-89157759D01*
X118479451Y-89157770D01*
X118449500Y-89385258D01*
X114900500Y-89385258D01*
X114900500Y-59685258D01*
X118449500Y-59685258D01*
X118449500Y-59914741D01*
X118466886Y-60046792D01*
X118479452Y-60142238D01*
X118528050Y-60323610D01*
X118538842Y-60363887D01*
X118626650Y-60575876D01*
X118626657Y-60575890D01*
X118741392Y-60774617D01*
X118881081Y-60956661D01*
X118881089Y-60956670D01*
X119043330Y-61118911D01*
X119043338Y-61118918D01*
X119225382Y-61258607D01*
X119225385Y-61258608D01*
X119225388Y-61258611D01*
X119424112Y-61373344D01*
X119424117Y-61373346D01*
X119424123Y-61373349D01*
X119515480Y-61411190D01*
X119636113Y-61461158D01*
X119857762Y-61520548D01*
X120085266Y-61550500D01*
X120085273Y-61550500D01*
X120314727Y-61550500D01*
X120314734Y-61550500D01*
X120542238Y-61520548D01*
X120763887Y-61461158D01*
X120975888Y-61373344D01*
X121174612Y-61258611D01*
X121356661Y-61118919D01*
X121356665Y-61118914D01*
X121356670Y-61118911D01*
X121518911Y-60956670D01*
X121518914Y-60956665D01*
X121518919Y-60956661D01*
X121658611Y-60774612D01*
X121773344Y-60575888D01*
X121861158Y-60363887D01*
X121920548Y-60142238D01*
X121950500Y-59914734D01*
X121950500Y-59685266D01*
X121920548Y-59457762D01*
X121861158Y-59236113D01*
X121773344Y-59024112D01*
X121658611Y-58825388D01*
X121658608Y-58825385D01*
X121658607Y-58825382D01*
X121518918Y-58643338D01*
X121518911Y-58643330D01*
X121356670Y-58481089D01*
X121356661Y-58481081D01*
X121174617Y-58341392D01*
X120975890Y-58226657D01*
X120975876Y-58226650D01*
X120763887Y-58138842D01*
X120542238Y-58079452D01*
X120504215Y-58074446D01*
X120314741Y-58049500D01*
X120314734Y-58049500D01*
X120085266Y-58049500D01*
X120085258Y-58049500D01*
X119868715Y-58078009D01*
X119857762Y-58079452D01*
X119835982Y-58085288D01*
X119636112Y-58138842D01*
X119424123Y-58226650D01*
X119424109Y-58226657D01*
X119225382Y-58341392D01*
X119043338Y-58481081D01*
X118881081Y-58643338D01*
X118741392Y-58825382D01*
X118626657Y-59024109D01*
X118626650Y-59024123D01*
X118538842Y-59236112D01*
X118531569Y-59263256D01*
X118496600Y-59393766D01*
X118479453Y-59457759D01*
X118479451Y-59457770D01*
X118449500Y-59685258D01*
X114900500Y-59685258D01*
X114900500Y-48725458D01*
X116136000Y-48725458D01*
X116136000Y-50984541D01*
X116138912Y-51021546D01*
X116138913Y-51021552D01*
X116184934Y-51179954D01*
X116184935Y-51179957D01*
X116268905Y-51321943D01*
X116268912Y-51321952D01*
X116385547Y-51438587D01*
X116385551Y-51438590D01*
X116385553Y-51438592D01*
X116527541Y-51522564D01*
X116540927Y-51526453D01*
X116685947Y-51568586D01*
X116685950Y-51568586D01*
X116685952Y-51568587D01*
X116722966Y-51571500D01*
X116722974Y-51571500D01*
X118074026Y-51571500D01*
X118074034Y-51571500D01*
X118111048Y-51568587D01*
X118111050Y-51568586D01*
X118111052Y-51568586D01*
X118184968Y-51547111D01*
X118269459Y-51522564D01*
X118411447Y-51438592D01*
X118528092Y-51321947D01*
X118561768Y-51265003D01*
X118612837Y-51217321D01*
X118681579Y-51204817D01*
X118746168Y-51231462D01*
X118775232Y-51265004D01*
X118808906Y-51321944D01*
X118808912Y-51321952D01*
X118925547Y-51438587D01*
X118925551Y-51438590D01*
X118925553Y-51438592D01*
X119067541Y-51522564D01*
X119080927Y-51526453D01*
X119225947Y-51568586D01*
X119225950Y-51568586D01*
X119225952Y-51568587D01*
X119262966Y-51571500D01*
X119262974Y-51571500D01*
X120614026Y-51571500D01*
X120614034Y-51571500D01*
X120651048Y-51568587D01*
X120651050Y-51568586D01*
X120651052Y-51568586D01*
X120724968Y-51547111D01*
X120809459Y-51522564D01*
X120951447Y-51438592D01*
X121068092Y-51321947D01*
X121101768Y-51265003D01*
X121152837Y-51217321D01*
X121221579Y-51204817D01*
X121286168Y-51231462D01*
X121315232Y-51265004D01*
X121348906Y-51321944D01*
X121348912Y-51321952D01*
X121465547Y-51438587D01*
X121465551Y-51438590D01*
X121465553Y-51438592D01*
X121607541Y-51522564D01*
X121620927Y-51526453D01*
X121765947Y-51568586D01*
X121765950Y-51568586D01*
X121765952Y-51568587D01*
X121802966Y-51571500D01*
X121802974Y-51571500D01*
X123154026Y-51571500D01*
X123154034Y-51571500D01*
X123191048Y-51568587D01*
X123191050Y-51568586D01*
X123191052Y-51568586D01*
X123264968Y-51547111D01*
X123349459Y-51522564D01*
X123491447Y-51438592D01*
X123608092Y-51321947D01*
X123641768Y-51265003D01*
X123692837Y-51217321D01*
X123761579Y-51204817D01*
X123826168Y-51231462D01*
X123855232Y-51265004D01*
X123888906Y-51321944D01*
X123888912Y-51321952D01*
X124005547Y-51438587D01*
X124005551Y-51438590D01*
X124005553Y-51438592D01*
X124147541Y-51522564D01*
X124160927Y-51526453D01*
X124305947Y-51568586D01*
X124305950Y-51568586D01*
X124305952Y-51568587D01*
X124342966Y-51571500D01*
X124342974Y-51571500D01*
X125478363Y-51571500D01*
X125545402Y-51591185D01*
X125591157Y-51643989D01*
X125601101Y-51713147D01*
X125572076Y-51776703D01*
X125550887Y-51795396D01*
X125550919Y-51795435D01*
X125549831Y-51796327D01*
X125547251Y-51798604D01*
X125546209Y-51799299D01*
X125434713Y-51910795D01*
X125434710Y-51910799D01*
X125347109Y-52041902D01*
X125347102Y-52041915D01*
X125286764Y-52187586D01*
X125286761Y-52187598D01*
X125256000Y-52342241D01*
X125256000Y-52499934D01*
X125286761Y-52654577D01*
X125286764Y-52654589D01*
X125347102Y-52800260D01*
X125347109Y-52800273D01*
X125434710Y-52931376D01*
X125434713Y-52931380D01*
X125546207Y-53042874D01*
X125546211Y-53042877D01*
X125677314Y-53130478D01*
X125677327Y-53130485D01*
X125804387Y-53183114D01*
X125823003Y-53190825D01*
X125932895Y-53212684D01*
X125977653Y-53221587D01*
X125977656Y-53221588D01*
X125977658Y-53221588D01*
X125991758Y-53221588D01*
X126058797Y-53241273D01*
X126079439Y-53257907D01*
X126950897Y-54129365D01*
X127058047Y-54236515D01*
X127189277Y-54312281D01*
X127335646Y-54351500D01*
X127335648Y-54351500D01*
X131349764Y-54351500D01*
X131349766Y-54351500D01*
X131408408Y-54335787D01*
X131478257Y-54337450D01*
X131536119Y-54376613D01*
X131563623Y-54440841D01*
X131564500Y-54455562D01*
X131564500Y-57721500D01*
X131544815Y-57788539D01*
X131492011Y-57834294D01*
X131440501Y-57845500D01*
X131338130Y-57845500D01*
X131338123Y-57845501D01*
X131278516Y-57851908D01*
X131143671Y-57902202D01*
X131143664Y-57902206D01*
X131028455Y-57988452D01*
X131028452Y-57988455D01*
X130942206Y-58103664D01*
X130942202Y-58103671D01*
X130891908Y-58238517D01*
X130885501Y-58298116D01*
X130885500Y-58298135D01*
X130885500Y-59901870D01*
X130885501Y-59901876D01*
X130891908Y-59961483D01*
X130942202Y-60096328D01*
X130942206Y-60096335D01*
X131028452Y-60211544D01*
X131028455Y-60211547D01*
X131143664Y-60297793D01*
X131143671Y-60297797D01*
X131278517Y-60348091D01*
X131278516Y-60348091D01*
X131285444Y-60348835D01*
X131338127Y-60354500D01*
X132941872Y-60354499D01*
X133001483Y-60348091D01*
X133136331Y-60297796D01*
X133251546Y-60211546D01*
X133281156Y-60171991D01*
X133337086Y-60130122D01*
X133406777Y-60125136D01*
X133468101Y-60158621D01*
X133899995Y-60590515D01*
X134031225Y-60666281D01*
X134177594Y-60705500D01*
X134177596Y-60705500D01*
X138393264Y-60705500D01*
X138393266Y-60705500D01*
X138539635Y-60666281D01*
X138670865Y-60590515D01*
X139029478Y-60231900D01*
X139090801Y-60198416D01*
X139160492Y-60203400D01*
X139173442Y-60209091D01*
X139278439Y-60262591D01*
X139419287Y-60308355D01*
X139466236Y-60323610D01*
X139661264Y-60354500D01*
X139661269Y-60354500D01*
X139858736Y-60354500D01*
X140053763Y-60323610D01*
X140241561Y-60262591D01*
X140417501Y-60172944D01*
X140522955Y-60096328D01*
X140577246Y-60056884D01*
X140577248Y-60056881D01*
X140577252Y-60056879D01*
X140716879Y-59917252D01*
X140716881Y-59917248D01*
X140716884Y-59917246D01*
X140767779Y-59847192D01*
X140832944Y-59757501D01*
X140869754Y-59685258D01*
X149949500Y-59685258D01*
X149949500Y-59914741D01*
X149966886Y-60046792D01*
X149979452Y-60142238D01*
X150028050Y-60323610D01*
X150038842Y-60363887D01*
X150126650Y-60575876D01*
X150126657Y-60575890D01*
X150241392Y-60774617D01*
X150381081Y-60956661D01*
X150381089Y-60956670D01*
X150543330Y-61118911D01*
X150543338Y-61118918D01*
X150725382Y-61258607D01*
X150725385Y-61258608D01*
X150725388Y-61258611D01*
X150924112Y-61373344D01*
X150924117Y-61373346D01*
X150924123Y-61373349D01*
X151015480Y-61411190D01*
X151136113Y-61461158D01*
X151357762Y-61520548D01*
X151585266Y-61550500D01*
X151585273Y-61550500D01*
X151814727Y-61550500D01*
X151814734Y-61550500D01*
X152042238Y-61520548D01*
X152263887Y-61461158D01*
X152475888Y-61373344D01*
X152674612Y-61258611D01*
X152856661Y-61118919D01*
X152856665Y-61118914D01*
X152856670Y-61118911D01*
X153018911Y-60956670D01*
X153018914Y-60956665D01*
X153018919Y-60956661D01*
X153158611Y-60774612D01*
X153273344Y-60575888D01*
X153361158Y-60363887D01*
X153420548Y-60142238D01*
X153450500Y-59914734D01*
X153450500Y-59685266D01*
X153420548Y-59457762D01*
X153361158Y-59236113D01*
X153273344Y-59024112D01*
X153158611Y-58825388D01*
X153158608Y-58825385D01*
X153158607Y-58825382D01*
X153018918Y-58643338D01*
X153018911Y-58643330D01*
X152856670Y-58481089D01*
X152856661Y-58481081D01*
X152674617Y-58341392D01*
X152475890Y-58226657D01*
X152475876Y-58226650D01*
X152263887Y-58138842D01*
X152042238Y-58079452D01*
X152004215Y-58074446D01*
X151814741Y-58049500D01*
X151814734Y-58049500D01*
X151585266Y-58049500D01*
X151585258Y-58049500D01*
X151368715Y-58078009D01*
X151357762Y-58079452D01*
X151335982Y-58085288D01*
X151136112Y-58138842D01*
X150924123Y-58226650D01*
X150924109Y-58226657D01*
X150725382Y-58341392D01*
X150543338Y-58481081D01*
X150381081Y-58643338D01*
X150241392Y-58825382D01*
X150126657Y-59024109D01*
X150126650Y-59024123D01*
X150038842Y-59236112D01*
X150031569Y-59263256D01*
X149996600Y-59393766D01*
X149979453Y-59457759D01*
X149979451Y-59457770D01*
X149949500Y-59685258D01*
X140869754Y-59685258D01*
X140922591Y-59581561D01*
X140983610Y-59393763D01*
X141000320Y-59288260D01*
X141014500Y-59198736D01*
X141014500Y-59001263D01*
X140983610Y-58806236D01*
X140930681Y-58643338D01*
X140922591Y-58618439D01*
X140832944Y-58442499D01*
X140784267Y-58375500D01*
X140716884Y-58282753D01*
X140577246Y-58143115D01*
X140417504Y-58027058D01*
X140417503Y-58027057D01*
X140417501Y-58027056D01*
X140241561Y-57937409D01*
X140241555Y-57937407D01*
X140053763Y-57876389D01*
X139858736Y-57845500D01*
X139858731Y-57845500D01*
X139661269Y-57845500D01*
X139661264Y-57845500D01*
X139466235Y-57876390D01*
X139278441Y-57937407D01*
X139250020Y-57951889D01*
X139181350Y-57964785D01*
X139116610Y-57938509D01*
X139106044Y-57929085D01*
X139033806Y-57856847D01*
X139033802Y-57856844D01*
X138902699Y-57769243D01*
X138902686Y-57769236D01*
X138757015Y-57708898D01*
X138757003Y-57708895D01*
X138602359Y-57678134D01*
X138602356Y-57678134D01*
X138444672Y-57678134D01*
X138444669Y-57678134D01*
X138290024Y-57708895D01*
X138290012Y-57708898D01*
X138144341Y-57769236D01*
X138144328Y-57769243D01*
X138013225Y-57856844D01*
X138013221Y-57856847D01*
X138003254Y-57866815D01*
X137941931Y-57900300D01*
X137915573Y-57903134D01*
X137615713Y-57903134D01*
X137613382Y-57902764D01*
X137612172Y-57903083D01*
X137577395Y-57897065D01*
X137531836Y-57882262D01*
X137474160Y-57842825D01*
X137446962Y-57778466D01*
X137458877Y-57709620D01*
X137501264Y-57661229D01*
X137541164Y-57634567D01*
X137560289Y-57621789D01*
X137671789Y-57510289D01*
X137759394Y-57379179D01*
X137819737Y-57233497D01*
X137828929Y-57187281D01*
X137861312Y-57125373D01*
X137903091Y-57096914D01*
X137930179Y-57085695D01*
X138061289Y-56998090D01*
X138172789Y-56886590D01*
X138260394Y-56755480D01*
X138320737Y-56609798D01*
X138321135Y-56607798D01*
X138321631Y-56606848D01*
X138322506Y-56603966D01*
X138323052Y-56604131D01*
X138353517Y-56545885D01*
X138414232Y-56511309D01*
X138484001Y-56515046D01*
X138490190Y-56517417D01*
X138616503Y-56569737D01*
X138744438Y-56595185D01*
X138771153Y-56600499D01*
X138771156Y-56600500D01*
X138771158Y-56600500D01*
X138928844Y-56600500D01*
X139007354Y-56584882D01*
X139042545Y-56577882D01*
X139066736Y-56575500D01*
X140242059Y-56575500D01*
X140309098Y-56595185D01*
X140329740Y-56611819D01*
X140339707Y-56621786D01*
X140339711Y-56621789D01*
X140470814Y-56709390D01*
X140470827Y-56709397D01*
X140616498Y-56769735D01*
X140616503Y-56769737D01*
X140771153Y-56800499D01*
X140771156Y-56800500D01*
X140771158Y-56800500D01*
X140928844Y-56800500D01*
X140928845Y-56800499D01*
X141083497Y-56769737D01*
X141229179Y-56709394D01*
X141360289Y-56621789D01*
X141471789Y-56510289D01*
X141559394Y-56379179D01*
X141578022Y-56334203D01*
X141604899Y-56293979D01*
X142079271Y-55819607D01*
X142140592Y-55786124D01*
X142200435Y-55789294D01*
X142200588Y-55788582D01*
X142205057Y-55789538D01*
X142205958Y-55789586D01*
X142207203Y-55789999D01*
X142309991Y-55800500D01*
X143060008Y-55800499D01*
X143060016Y-55800498D01*
X143060019Y-55800498D01*
X143116302Y-55794748D01*
X143162797Y-55789999D01*
X143329334Y-55734814D01*
X143478656Y-55642712D01*
X143602712Y-55518656D01*
X143694814Y-55369334D01*
X143749999Y-55202797D01*
X143760500Y-55100009D01*
X143760500Y-55099986D01*
X144560001Y-55099986D01*
X144570494Y-55202697D01*
X144625641Y-55369119D01*
X144625643Y-55369124D01*
X144717684Y-55518345D01*
X144841654Y-55642315D01*
X144990875Y-55734356D01*
X144990880Y-55734358D01*
X145157302Y-55789505D01*
X145157309Y-55789506D01*
X145260019Y-55799999D01*
X145384999Y-55799999D01*
X145885000Y-55799999D01*
X146009972Y-55799999D01*
X146009986Y-55799998D01*
X146112697Y-55789505D01*
X146279119Y-55734358D01*
X146279124Y-55734356D01*
X146428345Y-55642315D01*
X146552315Y-55518345D01*
X146644356Y-55369124D01*
X146644358Y-55369119D01*
X146699505Y-55202697D01*
X146699506Y-55202690D01*
X146709999Y-55099986D01*
X146710000Y-55099973D01*
X146710000Y-54650000D01*
X145885000Y-54650000D01*
X145885000Y-55799999D01*
X145384999Y-55799999D01*
X145385000Y-55799998D01*
X145385000Y-54650000D01*
X144560001Y-54650000D01*
X144560001Y-55099986D01*
X143760500Y-55099986D01*
X143760499Y-54189740D01*
X143780184Y-54122702D01*
X143796813Y-54102065D01*
X144354632Y-53544247D01*
X144415952Y-53510764D01*
X144485644Y-53515748D01*
X144541577Y-53557620D01*
X144565994Y-53623084D01*
X144565668Y-53644531D01*
X144560000Y-53700008D01*
X144560000Y-54150000D01*
X145385000Y-54150000D01*
X145885000Y-54150000D01*
X146709999Y-54150000D01*
X146709999Y-53700028D01*
X146709998Y-53700013D01*
X146699505Y-53597302D01*
X146644358Y-53430880D01*
X146644356Y-53430875D01*
X146552315Y-53281654D01*
X146428345Y-53157684D01*
X146279124Y-53065643D01*
X146279119Y-53065641D01*
X146112697Y-53010494D01*
X146112690Y-53010493D01*
X146009986Y-53000000D01*
X145885000Y-53000000D01*
X145885000Y-54150000D01*
X145385000Y-54150000D01*
X145385000Y-53000000D01*
X145260027Y-53000000D01*
X145260009Y-53000001D01*
X145204531Y-53005669D01*
X145135838Y-52992899D01*
X145084954Y-52945018D01*
X145068034Y-52877228D01*
X145090450Y-52811052D01*
X145104244Y-52794635D01*
X145144515Y-52754365D01*
X145220281Y-52623135D01*
X145233063Y-52575430D01*
X145265158Y-52519840D01*
X145284999Y-52499999D01*
X145785000Y-52499999D01*
X145909972Y-52499999D01*
X145909986Y-52499998D01*
X146012697Y-52489505D01*
X146179119Y-52434358D01*
X146179124Y-52434356D01*
X146328345Y-52342315D01*
X146452315Y-52218345D01*
X146544356Y-52069124D01*
X146544358Y-52069119D01*
X146599505Y-51902697D01*
X146599506Y-51902690D01*
X146609999Y-51799986D01*
X146610000Y-51799973D01*
X146610000Y-51350000D01*
X145785000Y-51350000D01*
X145785000Y-52499999D01*
X145284999Y-52499999D01*
X145285000Y-52499998D01*
X145285000Y-50850000D01*
X145785000Y-50850000D01*
X146609999Y-50850000D01*
X146609999Y-50400028D01*
X146609998Y-50400013D01*
X146599505Y-50297302D01*
X146544358Y-50130880D01*
X146544356Y-50130875D01*
X146452315Y-49981654D01*
X146328345Y-49857684D01*
X146179124Y-49765643D01*
X146179119Y-49765641D01*
X146012697Y-49710494D01*
X146012690Y-49710493D01*
X145909986Y-49700000D01*
X145785000Y-49700000D01*
X145785000Y-50850000D01*
X145285000Y-50850000D01*
X145285000Y-49691005D01*
X145262334Y-49649496D01*
X145259500Y-49623138D01*
X145259500Y-49023236D01*
X145259500Y-49023234D01*
X145220281Y-48876865D01*
X145144515Y-48745635D01*
X145037365Y-48638485D01*
X145037364Y-48638484D01*
X145033034Y-48634154D01*
X145033023Y-48634144D01*
X145004249Y-48605370D01*
X144970764Y-48544047D01*
X144975748Y-48474355D01*
X145017620Y-48418422D01*
X145083084Y-48394005D01*
X145104533Y-48394331D01*
X145160019Y-48399999D01*
X145284999Y-48399999D01*
X145785000Y-48399999D01*
X145909972Y-48399999D01*
X145909986Y-48399998D01*
X146012697Y-48389505D01*
X146179119Y-48334358D01*
X146179124Y-48334356D01*
X146328345Y-48242315D01*
X146452315Y-48118345D01*
X146544356Y-47969124D01*
X146544358Y-47969119D01*
X146599505Y-47802697D01*
X146599506Y-47802690D01*
X146609999Y-47699986D01*
X146610000Y-47699973D01*
X146610000Y-47250000D01*
X145785000Y-47250000D01*
X145785000Y-48399999D01*
X145284999Y-48399999D01*
X145285000Y-48399998D01*
X145285000Y-47250000D01*
X144460001Y-47250000D01*
X144460001Y-47699989D01*
X144465669Y-47755469D01*
X144452899Y-47824162D01*
X144405018Y-47875046D01*
X144337228Y-47891966D01*
X144271052Y-47869550D01*
X144254630Y-47855751D01*
X143696818Y-47297939D01*
X143682114Y-47271011D01*
X143665522Y-47245193D01*
X143664630Y-47238992D01*
X143663333Y-47236616D01*
X143660499Y-47210258D01*
X143660499Y-47164741D01*
X143680184Y-47097702D01*
X143696813Y-47077065D01*
X144248321Y-46525557D01*
X144309642Y-46492074D01*
X144379334Y-46497058D01*
X144435267Y-46538930D01*
X144459684Y-46604394D01*
X144460000Y-46613240D01*
X144460000Y-46750000D01*
X145285000Y-46750000D01*
X145785000Y-46750000D01*
X146609999Y-46750000D01*
X146609999Y-46300028D01*
X146609998Y-46300013D01*
X146599505Y-46197302D01*
X146544358Y-46030880D01*
X146544356Y-46030875D01*
X146452315Y-45881654D01*
X146328345Y-45757684D01*
X146179124Y-45665643D01*
X146179119Y-45665641D01*
X146012697Y-45610494D01*
X146012690Y-45610493D01*
X145909986Y-45600000D01*
X145785000Y-45600000D01*
X145785000Y-46750000D01*
X145285000Y-46750000D01*
X145285000Y-45573296D01*
X145283635Y-45570797D01*
X145285000Y-45551710D01*
X145285000Y-45548638D01*
X145285220Y-45548638D01*
X145288619Y-45501105D01*
X145317118Y-45456760D01*
X147288474Y-43485404D01*
X147349795Y-43451921D01*
X147414468Y-43455155D01*
X147455466Y-43468477D01*
X147657648Y-43500500D01*
X147657649Y-43500500D01*
X147862351Y-43500500D01*
X147862352Y-43500500D01*
X148064534Y-43468477D01*
X148259219Y-43405220D01*
X148441610Y-43312287D01*
X148534590Y-43244732D01*
X148607213Y-43191971D01*
X148607215Y-43191968D01*
X148607219Y-43191966D01*
X148751966Y-43047219D01*
X148751968Y-43047215D01*
X148751971Y-43047213D01*
X148808259Y-42969738D01*
X148872287Y-42881610D01*
X148965220Y-42699219D01*
X149028477Y-42504534D01*
X149060500Y-42302352D01*
X149060500Y-42097648D01*
X149028477Y-41895465D01*
X148965218Y-41700776D01*
X148902767Y-41578211D01*
X148872287Y-41518390D01*
X148852098Y-41490602D01*
X148751971Y-41352786D01*
X148607213Y-41208028D01*
X148441611Y-41087713D01*
X148413202Y-41073237D01*
X148362408Y-41025262D01*
X148345500Y-40962754D01*
X148345500Y-36842339D01*
X148365185Y-36775300D01*
X148413204Y-36731855D01*
X148451610Y-36712287D01*
X148617219Y-36591966D01*
X148761966Y-36447219D01*
X148761968Y-36447215D01*
X148761971Y-36447213D01*
X148859748Y-36312632D01*
X148882287Y-36281610D01*
X148975220Y-36099219D01*
X149038477Y-35904534D01*
X149070500Y-35702352D01*
X149070500Y-35497648D01*
X149038477Y-35295466D01*
X148975220Y-35100781D01*
X148975218Y-35100778D01*
X148975218Y-35100776D01*
X148929685Y-35011414D01*
X148882287Y-34918390D01*
X148839401Y-34859362D01*
X148761971Y-34752786D01*
X148617213Y-34608028D01*
X148451613Y-34487715D01*
X148451612Y-34487714D01*
X148451610Y-34487713D01*
X148394653Y-34458691D01*
X148269223Y-34394781D01*
X148074534Y-34331522D01*
X147899995Y-34303878D01*
X147872352Y-34299500D01*
X147667648Y-34299500D01*
X147643329Y-34303351D01*
X147465465Y-34331522D01*
X147270776Y-34394781D01*
X147088386Y-34487715D01*
X146922786Y-34608028D01*
X146778028Y-34752786D01*
X146657715Y-34918386D01*
X146564781Y-35100776D01*
X146501522Y-35295465D01*
X146469500Y-35497648D01*
X146469500Y-35702351D01*
X146501522Y-35904534D01*
X146564781Y-36099223D01*
X146657715Y-36281613D01*
X146778028Y-36447213D01*
X146778034Y-36447219D01*
X146922781Y-36591966D01*
X147088390Y-36712287D01*
X147126795Y-36731855D01*
X147177590Y-36779827D01*
X147194500Y-36842339D01*
X147194500Y-40952564D01*
X147174815Y-41019603D01*
X147126796Y-41063048D01*
X147078388Y-41087713D01*
X146912786Y-41208028D01*
X146768028Y-41352786D01*
X146647715Y-41518386D01*
X146554781Y-41700776D01*
X146491522Y-41895465D01*
X146459500Y-42097648D01*
X146459500Y-42302352D01*
X146491523Y-42504534D01*
X146501852Y-42536326D01*
X146504843Y-42545529D01*
X146506837Y-42615370D01*
X146474592Y-42671526D01*
X143454278Y-45691841D01*
X143392955Y-45725326D01*
X143323263Y-45720342D01*
X143301507Y-45709702D01*
X143229334Y-45665186D01*
X143062797Y-45610001D01*
X143062795Y-45610000D01*
X142960010Y-45599500D01*
X142209998Y-45599500D01*
X142209980Y-45599501D01*
X142107203Y-45610000D01*
X142107200Y-45610001D01*
X141940668Y-45665185D01*
X141940663Y-45665187D01*
X141791342Y-45757289D01*
X141667289Y-45881342D01*
X141575187Y-46030663D01*
X141575185Y-46030668D01*
X141575115Y-46030880D01*
X141520001Y-46197203D01*
X141520001Y-46197204D01*
X141520000Y-46197204D01*
X141509500Y-46299983D01*
X141509500Y-47700001D01*
X141509501Y-47700018D01*
X141520000Y-47802796D01*
X141520001Y-47802799D01*
X141565536Y-47940213D01*
X141575186Y-47969334D01*
X141667288Y-48118656D01*
X141791344Y-48242712D01*
X141940666Y-48334814D01*
X142107203Y-48389999D01*
X142209991Y-48400500D01*
X142960008Y-48400499D01*
X142960016Y-48400498D01*
X142960019Y-48400498D01*
X142983896Y-48398058D01*
X143062797Y-48389999D01*
X143064046Y-48389584D01*
X143064860Y-48389556D01*
X143069414Y-48388582D01*
X143069587Y-48389394D01*
X143133872Y-48387183D01*
X143190730Y-48419610D01*
X144072181Y-49301060D01*
X144105666Y-49362383D01*
X144108500Y-49388741D01*
X144108500Y-52111257D01*
X144088815Y-52178296D01*
X144072181Y-52198938D01*
X143290729Y-52980389D01*
X143229406Y-53013874D01*
X143169572Y-53010706D01*
X143169420Y-53011418D01*
X143164955Y-53010462D01*
X143164043Y-53010414D01*
X143162797Y-53010001D01*
X143111403Y-53004750D01*
X143060010Y-52999500D01*
X142309998Y-52999500D01*
X142309980Y-52999501D01*
X142207203Y-53010000D01*
X142207200Y-53010001D01*
X142040668Y-53065185D01*
X142040663Y-53065187D01*
X141891342Y-53157289D01*
X141767289Y-53281342D01*
X141675187Y-53430663D01*
X141675185Y-53430668D01*
X141666696Y-53456286D01*
X141620001Y-53597203D01*
X141620001Y-53597204D01*
X141620000Y-53597204D01*
X141609500Y-53699983D01*
X141609500Y-54610257D01*
X141589815Y-54677296D01*
X141573181Y-54697938D01*
X141094797Y-55176321D01*
X141033474Y-55209806D01*
X140982925Y-55210257D01*
X140928846Y-55199500D01*
X140928842Y-55199500D01*
X140771158Y-55199500D01*
X140771155Y-55199500D01*
X140616510Y-55230261D01*
X140616498Y-55230264D01*
X140470827Y-55290602D01*
X140470814Y-55290609D01*
X140339711Y-55378210D01*
X140339707Y-55378213D01*
X140329740Y-55388181D01*
X140268417Y-55421666D01*
X140242059Y-55424500D01*
X139628131Y-55424500D01*
X139625343Y-55423681D01*
X139622522Y-55424373D01*
X139592022Y-55413897D01*
X139561092Y-55404815D01*
X139558355Y-55402333D01*
X139556441Y-55401676D01*
X139547518Y-55392505D01*
X139530841Y-55377381D01*
X139527780Y-55373507D01*
X139471789Y-55289711D01*
X139423041Y-55240963D01*
X139418551Y-55235281D01*
X139408087Y-55209321D01*
X139394675Y-55184758D01*
X139395204Y-55177357D01*
X139392431Y-55170477D01*
X139397662Y-55142985D01*
X139399659Y-55115066D01*
X139404369Y-55107735D01*
X139405492Y-55101839D01*
X139413756Y-55093130D01*
X139428160Y-55070719D01*
X140697364Y-53801515D01*
X141979271Y-52519607D01*
X142040592Y-52486124D01*
X142100435Y-52489294D01*
X142100588Y-52488582D01*
X142105057Y-52489538D01*
X142105958Y-52489586D01*
X142107203Y-52489999D01*
X142209991Y-52500500D01*
X142960008Y-52500499D01*
X142960016Y-52500498D01*
X142960019Y-52500498D01*
X143056825Y-52490609D01*
X143062797Y-52489999D01*
X143229334Y-52434814D01*
X143378656Y-52342712D01*
X143502712Y-52218656D01*
X143594814Y-52069334D01*
X143649999Y-51902797D01*
X143660500Y-51800009D01*
X143660499Y-50399992D01*
X143649999Y-50297203D01*
X143594814Y-50130666D01*
X143502712Y-49981344D01*
X143378656Y-49857288D01*
X143229334Y-49765186D01*
X143062797Y-49710001D01*
X143062795Y-49710000D01*
X142960010Y-49699500D01*
X142209998Y-49699500D01*
X142209980Y-49699501D01*
X142107203Y-49710000D01*
X142107200Y-49710001D01*
X141940668Y-49765185D01*
X141940663Y-49765187D01*
X141791342Y-49857289D01*
X141667289Y-49981342D01*
X141575187Y-50130663D01*
X141575185Y-50130668D01*
X141575115Y-50130880D01*
X141520001Y-50297203D01*
X141520001Y-50297204D01*
X141520000Y-50297204D01*
X141509500Y-50399983D01*
X141509500Y-51310257D01*
X141489815Y-51377296D01*
X141473181Y-51397938D01*
X139009576Y-53861543D01*
X138948253Y-53895028D01*
X138878561Y-53890044D01*
X138853004Y-53876964D01*
X138740098Y-53801522D01*
X138740085Y-53801515D01*
X138594414Y-53741177D01*
X138594402Y-53741174D01*
X138439758Y-53710413D01*
X138439755Y-53710413D01*
X138432875Y-53710413D01*
X138365836Y-53690728D01*
X138320081Y-53637924D01*
X138309760Y-53571628D01*
X138315500Y-53523835D01*
X138315499Y-53276166D01*
X138313306Y-53257907D01*
X138307876Y-53212684D01*
X138307876Y-53183114D01*
X138314999Y-53123795D01*
X138314999Y-52876211D01*
X138304819Y-52791433D01*
X138304818Y-52791429D01*
X138251624Y-52656538D01*
X138251624Y-52656537D01*
X138164005Y-52540994D01*
X138048462Y-52453375D01*
X137913568Y-52400180D01*
X137828789Y-52390000D01*
X137684499Y-52390000D01*
X137617460Y-52370315D01*
X137571705Y-52317511D01*
X137560499Y-52266000D01*
X137560499Y-52121172D01*
X137560499Y-52121166D01*
X137550310Y-52036313D01*
X137497064Y-51901289D01*
X137409362Y-51785638D01*
X137293711Y-51697936D01*
X137158687Y-51644690D01*
X137158686Y-51644689D01*
X137158685Y-51644689D01*
X137073835Y-51634500D01*
X136826171Y-51634500D01*
X136762679Y-51642124D01*
X136733113Y-51642123D01*
X136673797Y-51635000D01*
X136450641Y-51635000D01*
X136383602Y-51615315D01*
X136337847Y-51562511D01*
X136327903Y-51493353D01*
X136329024Y-51486808D01*
X136350500Y-51378844D01*
X136350500Y-51221155D01*
X136350499Y-51221153D01*
X136342305Y-51179959D01*
X136319737Y-51066503D01*
X136301116Y-51021548D01*
X136259397Y-50920827D01*
X136259395Y-50920823D01*
X136259394Y-50920821D01*
X136174622Y-50793951D01*
X136153745Y-50727276D01*
X136172229Y-50659896D01*
X136190040Y-50637385D01*
X141676515Y-45150911D01*
X141752281Y-45019681D01*
X141791500Y-44873313D01*
X141791500Y-44721780D01*
X141791500Y-36590234D01*
X141752281Y-36443865D01*
X141676515Y-36312635D01*
X141569365Y-36205485D01*
X141435406Y-36071526D01*
X141401921Y-36010203D01*
X141405156Y-35945528D01*
X141418477Y-35904534D01*
X141450500Y-35702352D01*
X141450500Y-35497648D01*
X141418477Y-35295466D01*
X141355220Y-35100781D01*
X141355218Y-35100778D01*
X141355218Y-35100776D01*
X141309685Y-35011414D01*
X141262287Y-34918390D01*
X141219401Y-34859362D01*
X141141971Y-34752786D01*
X140997213Y-34608028D01*
X140831613Y-34487715D01*
X140831612Y-34487714D01*
X140831610Y-34487713D01*
X140774653Y-34458691D01*
X140649223Y-34394781D01*
X140454534Y-34331522D01*
X140279995Y-34303878D01*
X140252352Y-34299500D01*
X140047648Y-34299500D01*
X140023329Y-34303351D01*
X139845465Y-34331522D01*
X139650776Y-34394781D01*
X139468386Y-34487715D01*
X139302786Y-34608028D01*
X139158028Y-34752786D01*
X139037715Y-34918386D01*
X138944781Y-35100776D01*
X138881522Y-35295465D01*
X138849500Y-35497648D01*
X138849500Y-35702351D01*
X138881522Y-35904534D01*
X138944781Y-36099223D01*
X139037715Y-36281613D01*
X139158028Y-36447213D01*
X139302786Y-36591971D01*
X139457749Y-36704556D01*
X139468390Y-36712287D01*
X139584607Y-36771503D01*
X139650776Y-36805218D01*
X139650778Y-36805218D01*
X139650781Y-36805220D01*
X139732201Y-36831675D01*
X139845465Y-36868477D01*
X139946557Y-36884488D01*
X140047648Y-36900500D01*
X140047649Y-36900500D01*
X140252351Y-36900500D01*
X140252352Y-36900500D01*
X140454534Y-36868477D01*
X140478182Y-36860792D01*
X140548022Y-36858798D01*
X140607855Y-36894878D01*
X140638684Y-36957578D01*
X140640500Y-36978724D01*
X140640500Y-40824524D01*
X140620815Y-40891563D01*
X140568011Y-40937318D01*
X140498853Y-40947262D01*
X140478183Y-40942455D01*
X140444542Y-40931524D01*
X140444535Y-40931523D01*
X140343443Y-40915511D01*
X140242352Y-40899500D01*
X140037648Y-40899500D01*
X140013329Y-40903351D01*
X139835465Y-40931522D01*
X139640776Y-40994781D01*
X139458386Y-41087715D01*
X139292786Y-41208028D01*
X139148028Y-41352786D01*
X139027713Y-41518388D01*
X139008145Y-41556794D01*
X138960171Y-41607591D01*
X138897660Y-41624500D01*
X128257941Y-41624500D01*
X128190902Y-41604815D01*
X128170260Y-41588181D01*
X128160292Y-41578213D01*
X128160288Y-41578210D01*
X128029185Y-41490609D01*
X128029172Y-41490602D01*
X127883501Y-41430264D01*
X127883489Y-41430261D01*
X127728845Y-41399500D01*
X127728842Y-41399500D01*
X127571158Y-41399500D01*
X127571155Y-41399500D01*
X127416510Y-41430261D01*
X127416498Y-41430264D01*
X127270827Y-41490602D01*
X127270814Y-41490609D01*
X127139711Y-41578210D01*
X127139707Y-41578213D01*
X127028213Y-41689707D01*
X127028210Y-41689711D01*
X126940609Y-41820814D01*
X126940602Y-41820827D01*
X126880264Y-41966498D01*
X126880261Y-41966510D01*
X126849500Y-42121153D01*
X126849500Y-42278846D01*
X126880261Y-42433489D01*
X126880264Y-42433501D01*
X126940602Y-42579172D01*
X126940609Y-42579185D01*
X127028210Y-42710288D01*
X127028213Y-42710292D01*
X127139707Y-42821786D01*
X127139711Y-42821789D01*
X127270814Y-42909390D01*
X127270827Y-42909397D01*
X127416498Y-42969735D01*
X127416503Y-42969737D01*
X127571153Y-43000499D01*
X127571156Y-43000500D01*
X127571158Y-43000500D01*
X127728844Y-43000500D01*
X127728845Y-43000499D01*
X127883497Y-42969737D01*
X128029179Y-42909394D01*
X128160289Y-42821789D01*
X128160292Y-42821786D01*
X128170260Y-42811819D01*
X128231583Y-42778334D01*
X128257941Y-42775500D01*
X138897660Y-42775500D01*
X138964699Y-42795185D01*
X139008145Y-42843206D01*
X139027713Y-42881611D01*
X139148028Y-43047213D01*
X139292786Y-43191971D01*
X139447749Y-43304556D01*
X139458390Y-43312287D01*
X139574607Y-43371503D01*
X139640776Y-43405218D01*
X139640778Y-43405218D01*
X139640781Y-43405220D01*
X139722201Y-43431675D01*
X139835465Y-43468477D01*
X139936557Y-43484488D01*
X140037648Y-43500500D01*
X140037649Y-43500500D01*
X140242351Y-43500500D01*
X140242352Y-43500500D01*
X140444534Y-43468477D01*
X140444539Y-43468475D01*
X140444541Y-43468475D01*
X140478180Y-43457545D01*
X140548021Y-43455548D01*
X140607854Y-43491628D01*
X140638684Y-43554328D01*
X140640500Y-43575475D01*
X140640500Y-44507804D01*
X140620815Y-44574843D01*
X140604181Y-44595485D01*
X135089487Y-50110178D01*
X135089485Y-50110181D01*
X135013719Y-50241409D01*
X134974500Y-50387780D01*
X134974500Y-50692059D01*
X134954815Y-50759098D01*
X134938181Y-50779740D01*
X134928213Y-50789707D01*
X134928210Y-50789711D01*
X134840609Y-50920814D01*
X134840602Y-50920827D01*
X134780264Y-51066498D01*
X134780261Y-51066508D01*
X134756952Y-51183692D01*
X134724567Y-51245602D01*
X134663851Y-51280177D01*
X134635335Y-51283500D01*
X133987135Y-51283500D01*
X133920096Y-51263815D01*
X133874341Y-51211011D01*
X133864397Y-51141853D01*
X133868059Y-51124905D01*
X133898086Y-51021552D01*
X133898087Y-51021546D01*
X133900999Y-50984541D01*
X133901000Y-50984534D01*
X133901000Y-48725466D01*
X133898087Y-48688452D01*
X133852064Y-48530041D01*
X133768092Y-48388053D01*
X133671890Y-48291851D01*
X133659258Y-48277060D01*
X133601484Y-48197539D01*
X133460966Y-48057021D01*
X133460964Y-48057019D01*
X133300194Y-47940213D01*
X133123132Y-47849994D01*
X133123129Y-47849993D01*
X132934137Y-47788587D01*
X132835998Y-47773043D01*
X132737861Y-47757500D01*
X132539139Y-47757500D01*
X132473714Y-47767862D01*
X132342862Y-47788587D01*
X132153870Y-47849993D01*
X132153867Y-47849994D01*
X131976805Y-47940213D01*
X131816033Y-48057021D01*
X131675518Y-48197536D01*
X131617739Y-48277061D01*
X131612460Y-48283821D01*
X131608946Y-48288013D01*
X131508908Y-48388053D01*
X131470064Y-48453733D01*
X131463538Y-48461521D01*
X131442576Y-48475485D01*
X131424162Y-48492679D01*
X131413992Y-48494528D01*
X131405391Y-48500259D01*
X131380203Y-48500674D01*
X131355421Y-48505182D01*
X131345866Y-48501240D01*
X131335531Y-48501411D01*
X131314116Y-48488142D01*
X131290831Y-48478536D01*
X131281808Y-48468123D01*
X131276138Y-48464610D01*
X131272926Y-48457873D01*
X131261768Y-48444996D01*
X131228092Y-48388053D01*
X131131890Y-48291851D01*
X131119258Y-48277060D01*
X131061484Y-48197539D01*
X130920966Y-48057021D01*
X130920964Y-48057019D01*
X130760194Y-47940213D01*
X130583132Y-47849994D01*
X130583129Y-47849993D01*
X130394137Y-47788587D01*
X130295998Y-47773043D01*
X130197861Y-47757500D01*
X129999139Y-47757500D01*
X129933714Y-47767862D01*
X129802862Y-47788587D01*
X129613870Y-47849993D01*
X129613867Y-47849994D01*
X129436805Y-47940213D01*
X129276033Y-48057021D01*
X129135518Y-48197536D01*
X129077739Y-48277061D01*
X129072460Y-48283821D01*
X129068946Y-48288013D01*
X128968908Y-48388053D01*
X128930064Y-48453733D01*
X128923538Y-48461521D01*
X128902576Y-48475485D01*
X128884162Y-48492679D01*
X128873992Y-48494528D01*
X128865391Y-48500259D01*
X128840203Y-48500674D01*
X128815421Y-48505182D01*
X128805866Y-48501240D01*
X128795531Y-48501411D01*
X128774116Y-48488142D01*
X128750831Y-48478536D01*
X128741808Y-48468123D01*
X128736138Y-48464610D01*
X128732926Y-48457873D01*
X128721768Y-48444996D01*
X128688092Y-48388053D01*
X128591890Y-48291851D01*
X128579258Y-48277060D01*
X128521484Y-48197539D01*
X128380966Y-48057021D01*
X128380964Y-48057019D01*
X128220194Y-47940213D01*
X128043132Y-47849994D01*
X128043129Y-47849993D01*
X127854137Y-47788587D01*
X127755998Y-47773043D01*
X127657861Y-47757500D01*
X127459139Y-47757500D01*
X127393714Y-47767862D01*
X127262862Y-47788587D01*
X127073870Y-47849993D01*
X127073867Y-47849994D01*
X126896805Y-47940213D01*
X126736033Y-48057021D01*
X126595518Y-48197536D01*
X126537739Y-48277061D01*
X126532460Y-48283821D01*
X126528946Y-48288013D01*
X126428908Y-48388053D01*
X126390064Y-48453733D01*
X126383538Y-48461521D01*
X126362576Y-48475485D01*
X126344162Y-48492679D01*
X126333992Y-48494528D01*
X126325391Y-48500259D01*
X126300203Y-48500674D01*
X126275421Y-48505182D01*
X126265866Y-48501240D01*
X126255531Y-48501411D01*
X126234116Y-48488142D01*
X126210831Y-48478536D01*
X126201808Y-48468123D01*
X126196138Y-48464610D01*
X126192926Y-48457873D01*
X126181768Y-48444996D01*
X126148092Y-48388053D01*
X126051890Y-48291851D01*
X126039258Y-48277060D01*
X125981484Y-48197539D01*
X125840966Y-48057021D01*
X125840964Y-48057019D01*
X125680194Y-47940213D01*
X125503132Y-47849994D01*
X125503129Y-47849993D01*
X125314137Y-47788587D01*
X125215998Y-47773043D01*
X125117861Y-47757500D01*
X124919139Y-47757500D01*
X124853714Y-47767862D01*
X124722862Y-47788587D01*
X124533870Y-47849993D01*
X124533867Y-47849994D01*
X124356805Y-47940213D01*
X124196033Y-48057021D01*
X124055518Y-48197536D01*
X123997739Y-48277061D01*
X123992460Y-48283821D01*
X123988946Y-48288013D01*
X123888908Y-48388053D01*
X123850064Y-48453733D01*
X123843538Y-48461521D01*
X123822576Y-48475485D01*
X123804162Y-48492679D01*
X123793992Y-48494528D01*
X123785391Y-48500259D01*
X123760203Y-48500674D01*
X123735421Y-48505182D01*
X123725866Y-48501240D01*
X123715531Y-48501411D01*
X123694116Y-48488142D01*
X123670831Y-48478536D01*
X123661808Y-48468123D01*
X123656138Y-48464610D01*
X123652926Y-48457873D01*
X123641768Y-48444996D01*
X123608092Y-48388053D01*
X123511890Y-48291851D01*
X123499258Y-48277060D01*
X123441484Y-48197539D01*
X123300966Y-48057021D01*
X123300964Y-48057019D01*
X123140194Y-47940213D01*
X122963132Y-47849994D01*
X122963129Y-47849993D01*
X122774137Y-47788587D01*
X122675998Y-47773043D01*
X122577861Y-47757500D01*
X122379139Y-47757500D01*
X122313714Y-47767862D01*
X122182862Y-47788587D01*
X121993870Y-47849993D01*
X121993867Y-47849994D01*
X121816805Y-47940213D01*
X121656033Y-48057021D01*
X121515518Y-48197536D01*
X121457739Y-48277061D01*
X121452460Y-48283821D01*
X121448946Y-48288013D01*
X121348908Y-48388053D01*
X121310064Y-48453733D01*
X121303538Y-48461521D01*
X121282576Y-48475485D01*
X121264162Y-48492679D01*
X121253992Y-48494528D01*
X121245391Y-48500259D01*
X121220203Y-48500674D01*
X121195421Y-48505182D01*
X121185866Y-48501240D01*
X121175531Y-48501411D01*
X121154116Y-48488142D01*
X121130831Y-48478536D01*
X121121808Y-48468123D01*
X121116138Y-48464610D01*
X121112926Y-48457873D01*
X121101768Y-48444996D01*
X121068092Y-48388053D01*
X120971890Y-48291851D01*
X120959258Y-48277060D01*
X120901484Y-48197539D01*
X120760966Y-48057021D01*
X120760964Y-48057019D01*
X120600194Y-47940213D01*
X120423132Y-47849994D01*
X120423129Y-47849993D01*
X120234137Y-47788587D01*
X120135998Y-47773043D01*
X120037861Y-47757500D01*
X119839139Y-47757500D01*
X119773714Y-47767862D01*
X119642862Y-47788587D01*
X119453870Y-47849993D01*
X119453867Y-47849994D01*
X119276805Y-47940213D01*
X119116033Y-48057021D01*
X118975518Y-48197536D01*
X118917739Y-48277061D01*
X118912460Y-48283821D01*
X118908946Y-48288013D01*
X118808908Y-48388053D01*
X118770064Y-48453733D01*
X118763538Y-48461521D01*
X118742576Y-48475485D01*
X118724162Y-48492679D01*
X118713992Y-48494528D01*
X118705391Y-48500259D01*
X118680203Y-48500674D01*
X118655421Y-48505182D01*
X118645866Y-48501240D01*
X118635531Y-48501411D01*
X118614116Y-48488142D01*
X118590831Y-48478536D01*
X118581808Y-48468123D01*
X118576138Y-48464610D01*
X118572926Y-48457873D01*
X118561768Y-48444996D01*
X118528092Y-48388053D01*
X118431890Y-48291851D01*
X118419258Y-48277060D01*
X118361484Y-48197539D01*
X118220966Y-48057021D01*
X118220964Y-48057019D01*
X118060194Y-47940213D01*
X117883132Y-47849994D01*
X117883129Y-47849993D01*
X117694137Y-47788587D01*
X117595998Y-47773043D01*
X117497861Y-47757500D01*
X117299139Y-47757500D01*
X117233714Y-47767862D01*
X117102862Y-47788587D01*
X116913870Y-47849993D01*
X116913867Y-47849994D01*
X116736805Y-47940213D01*
X116576033Y-48057021D01*
X116435518Y-48197536D01*
X116377739Y-48277061D01*
X116365104Y-48291854D01*
X116268913Y-48388046D01*
X116268905Y-48388056D01*
X116184935Y-48530042D01*
X116184934Y-48530045D01*
X116138913Y-48688447D01*
X116138912Y-48688453D01*
X116136000Y-48725458D01*
X114900500Y-48725458D01*
X114900500Y-31324500D01*
X114920185Y-31257461D01*
X114972989Y-31211706D01*
X115024500Y-31200500D01*
X116247098Y-31200500D01*
X116314137Y-31220185D01*
G37*
%TD.AperFunction*%
%TD*%
M02*
